<?xml version="1.0" encoding="utf-8"?>
<!-- Generator: Adobe Illustrator 19.0.0, SVG Export Plug-In . SVG Version: 6.00 Build 0)  -->
<svg version="1.1" id="图层_1" xmlns="http://www.w3.org/2000/svg" xmlns:xlink="http://www.w3.org/1999/xlink" x="0px" y="0px"
	 viewBox="0 0 256 144" style="enable-background:new 0 0 256 144;" xml:space="preserve">
<style type="text/css">
	.st0{clip-path:url(#SVGID_2_);fill:url(#XMLID_2_);}
	.st1{opacity:0.37;clip-path:url(#SVGID_4_);fill:url(#XMLID_3_);enable-background:new    ;}
	.st2{opacity:0.26;clip-path:url(#SVGID_6_);fill:url(#XMLID_4_);enable-background:new    ;}
	.st3{clip-path:url(#SVGID_8_);}
	.st4{clip-path:url(#SVGID_10_);}
	.st5{fill:#F29600;}
	.st6{fill:#004587;}
</style>
<g>
	<g>
		<defs>
			<rect id="SVGID_1_" width="256" height="144"/>
		</defs>
		<clipPath id="SVGID_2_">
			<use xlink:href="#SVGID_1_"  style="overflow:visible;"/>
		</clipPath>
		
			<linearGradient id="XMLID_2_" gradientUnits="userSpaceOnUse" x1="51.3663" y1="-23.8374" x2="211.1768" y2="177.0629" gradientTransform="matrix(1 0 0 -1 0 144)">
			<stop  offset="0" style="stop-color:#1E4886"/>
			<stop  offset="0.1368" style="stop-color:#174D8E"/>
			<stop  offset="0.3479" style="stop-color:#025CA4"/>
			<stop  offset="0.3677" style="stop-color:#005EA6"/>
			<stop  offset="0.5706" style="stop-color:#0070B3"/>
			<stop  offset="0.9781" style="stop-color:#00A0D6"/>
			<stop  offset="1" style="stop-color:#00A3D8"/>
		</linearGradient>
		<rect id="XMLID_94_" y="-1" class="st0" width="256" height="145"/>
	</g>
	<g>
		<defs>
			<rect id="SVGID_3_" width="256" height="144"/>
		</defs>
		<clipPath id="SVGID_4_">
			<use xlink:href="#SVGID_3_"  style="overflow:visible;"/>
		</clipPath>
		
			<linearGradient id="XMLID_3_" gradientUnits="userSpaceOnUse" x1="49.329" y1="-39.775" x2="232.8953" y2="102.3643" gradientTransform="matrix(1 0 0 -1 0 144)">
			<stop  offset="0" style="stop-color:#00396A;stop-opacity:0.5"/>
			<stop  offset="0.6656" style="stop-color:#00396A"/>
		</linearGradient>
		<path id="XMLID_274_" class="st1" d="M183-1L-15,157.8l103,51.8L228.9,126c0,0-35.1-15.9-44.9-27.6
			c-14.2-17.1-16.2-35.8-16.2-35.8L166,48.8l1.4-30.5L183-1z"/>
	</g>
	<g>
		<defs>
			<rect id="SVGID_5_" width="256" height="144"/>
		</defs>
		<clipPath id="SVGID_6_">
			<use xlink:href="#SVGID_5_"  style="overflow:visible;"/>
		</clipPath>
		
			<linearGradient id="XMLID_4_" gradientUnits="userSpaceOnUse" x1="76.9476" y1="-19.5898" x2="252.8951" y2="116.6501" gradientTransform="matrix(1 0 0 -1 0 144)">
			<stop  offset="0" style="stop-color:#00396A;stop-opacity:0.5"/>
			<stop  offset="0.6656" style="stop-color:#00396A"/>
		</linearGradient>
		<polygon id="XMLID_59_" class="st2" points="220.9,7.3 29.5,157 101.5,180.5 222.9,95.4 228.2,57 227.2,29 222.5,23.9 229,17.5 
			224.1,14.1 215,22.2 216.1,16.8 218,14.2 222.4,9.9 		"/>
	</g>
	<g>
		<defs>
			<rect id="SVGID_7_" width="256" height="144"/>
		</defs>
		<clipPath id="SVGID_8_">
			<use xlink:href="#SVGID_7_"  style="overflow:visible;"/>
		</clipPath>
		<g id="XMLID_258_" class="st3">
			<g id="XMLID_467_">
				<defs>
					<rect id="SVGID_9_" x="143.7" y="-1" width="112.3" height="147.4"/>
				</defs>
				<clipPath id="SVGID_10_">
					<use xlink:href="#SVGID_9_"  style="overflow:visible;"/>
				</clipPath>
				<g id="XMLID_425_" class="st4">
					<path id="XMLID_428_" class="st5" d="M270,79c-1.1,3.1,1.5,8.7,1.5,8.7s-0.9,4.1-26.8,9.7c0,0-7-4.5-9-21.6
						c-1.7-14.2-2.5-14.3-2.6-34.5c0-0.2,0-0.4,0-0.6c-0.2-10-0.5-12,1.3-13.5l0.1-0.1c1.7-1.5,2.8-3.7,2.8-6.2
						c0-4.6-3.7-8.3-8.3-8.3s-8.3,3.7-8.3,8.3c0,2.5,1.1,4.8,2.9,6.3l0,0c1.7,1.5,1.4,3.3,1.3,11.9l0,0c-0.1,17.4-0.9,22-2.6,36.8
						c-2,17.1-9,21.6-9,21.6c-25.9-5.6-26.8-9.7-26.8-9.7s2.6-5.7,1.5-8.7c-1-2.7-20.5-17.2-20.5-17.2s0.8,14.4,10.9,31.1
						c10.9,18.1,50.6,32.9,50.6,32.9l0,0l0,0c0,0,39.7-14.8,50.6-32.9c10.1-16.7,10.9-31.1,10.9-31.1S271,76.3,270,79z M229,24.4
						c-1.9,0-3.5-1.6-3.5-3.5s1.6-3.5,3.5-3.5s3.5,1.6,3.5,3.5S230.9,24.4,229,24.4z"/>
					<path id="XMLID_427_" class="st6" d="M292.9,17.3c-11.8-15.4-48.4-45-63.6-45.7l0,0c-0.1,0-0.2,0-0.3,0l0,0l0,0
						c-0.1,0-0.2,0-0.3,0l0,0c-15.2,0.8-51.9,30.3-63.6,45.7c-5.6,7.3,2.4,42.1,2.4,42.1s-2.1-27,2.8-36.1
						c5.1-9.5,41.3-34.4,58.3-35.8c0.1,0,0.2,0,0.4-0.1l0,0l0,0c0.1,0,0.2,0,0.4,0.1c17,1.4,53.2,26.3,58.3,35.8
						c4.9,9.1,2.8,36.1,2.8,36.1S298.5,24.6,292.9,17.3z"/>
					<path id="XMLID_426_" class="st5" d="M243.6,17.3c-0.4-2-1.2-4.1-2.5-5.9s-3.1-3.5-5.3-4.6c-2.1-1.1-4.6-1.7-7-1.7
						c-1.2,0-2.4,0.2-3.6,0.5c-1.2,0.3-2.3,0.8-3.4,1.3c-1.1,0.6-2,1.3-2.9,2c-0.9,0.8-1.6,1.7-2.3,2.6c-1.3,1.9-2.1,4-2.4,6
						c-0.3,2.1-0.4,2.7,0.1,5.7c0.4,1.7,1.1,3.2,1.9,4.4c0.8,1.2,1.6,2.1,2.4,2.7c0.7,0.7,1.4,1.1,1.8,1.4c0.5,0.3,0.7,0.4,0.7,0.4
						s-0.2-0.2-0.6-0.5c-0.2-0.2-0.4-0.4-0.7-0.7c-0.2-0.3-0.5-0.6-0.8-1c-0.6-0.7-1.2-1.7-1.8-2.9c-0.1-0.1-0.1-0.3-0.2-0.5
						c-0.1-0.2-0.1-0.3-0.2-0.5c-0.1-0.2-0.1-0.3-0.2-0.5c0-0.1-0.1-0.2-0.1-0.2c0-0.1,0-0.2-0.1-0.3c-0.2-0.7-0.3-1.4-0.5-2.2
						c0-0.4-0.1-0.8-0.1-1.2c0-0.2,0-0.4,0-0.6s0-0.4,0-0.6s0-0.4,0.1-0.7c0-0.2,0.1-0.4,0.1-0.6s0.1-0.4,0.1-0.6s0.1-0.4,0.1-0.6
						c0.4-1.7,1.2-3.4,2.4-4.8c1.1-1.5,2.6-2.7,4.4-3.6c1.7-0.9,3.7-1.4,5.6-1.4h0.1l0,0h0.1h0.2h0.4c0.2,0,0.5,0,0.7,0.1
						c0.2,0,0.5,0.1,0.7,0.1l0.4,0.1l0.4,0.1c1,0.2,1.9,0.5,2.7,1l0.3,0.2l0.3,0.2c0.2,0.1,0.4,0.2,0.6,0.4c0.2,0.1,0.4,0.3,0.6,0.4
						c0.2,0.1,0.4,0.3,0.6,0.4c0.7,0.6,1.4,1.3,2,2c1.2,1.5,2,3.1,2.4,4.8c0.2,0.8,0.4,1.7,0.4,2.5v0.2l0,0l0,0l0,0v0.1
						c0,0.1,0,0.2,0,0.3c0,0.2,0,0.5,0,0.6c0,0.2,0,0.4,0,0.6s0,0.4-0.1,0.6c0,0.2,0,0.4-0.1,0.6c0,0.2-0.1,0.4-0.1,0.6
						c-0.1,0.4-0.2,0.7-0.3,1.1c-0.2,0.7-0.4,1.3-0.7,1.9c-0.5,1.2-1.1,2.1-1.7,2.9c-0.3,0.4-0.6,0.7-0.8,1s-0.5,0.5-0.7,0.7
						c-0.4,0.4-0.6,0.5-0.6,0.5s0.2-0.1,0.7-0.4c0.4-0.3,1.1-0.7,1.8-1.4c0.7-0.7,1.6-1.6,2.3-2.7C243.8,23.9,244.2,20.6,243.6,17.3
						z"/>
				</g>
			</g>
		</g>
	</g>
</g>
</svg>
