<?xml version="1.0" encoding="UTF-8" standalone="no"?>
<svg width="1595px" height="338px" viewBox="0 0 1595 338" version="1.1" xmlns="http://www.w3.org/2000/svg" xmlns:xlink="http://www.w3.org/1999/xlink">
    <!-- Generator: Sketch 3.8.3 (29802) - http://www.bohemiancoding.com/sketch -->
    <title>map</title>
    <desc>Created with Sketch.</desc>
    <defs></defs>
    <g id="Page-1" stroke="none" stroke-width="1" fill="none" fill-rule="evenodd" opacity="0.35">
        <g id="引导页" transform="translate(-233.000000, -779.000000)">
            <g id="map" transform="translate(233.000000, 779.000000)">
                <path d="M1155.76142,203.162403 C1153.58739,200.743353 1152.50037,199.535344 1150.32483,197.117811 C1152.30356,197.457326 1153.29217,197.627084 1155.2709,197.968116 C1159.38884,197.874143 1161.44781,197.828672 1165.56727,197.739246 C1163.48105,195.506627 1162.43945,194.391075 1160.35323,192.158457 C1148.76546,191.968995 1142.97158,191.879569 1131.3823,191.708295 C1127.00547,189.910681 1124.8163,189.011874 1120.43796,187.217291 C1119.98377,186.304842 1119.75819,185.848618 1119.30401,184.93617 C1109.76613,181.886591 1104.99568,180.364833 1095.44871,177.328896 C1086.72079,174.552143 1082.35456,173.166797 1073.61908,170.40217 C1070.82584,171.541972 1069.42847,172.111874 1066.63674,173.253192 C1079.94587,178.477793 1086.59665,181.09843 1099.8861,186.348797 C1114.82878,192.25243 1122.29406,195.212582 1137.211,201.14956 C1140.60679,201.636098 1142.30544,201.878609 1145.70123,202.366663 C1146.12059,202.962331 1146.33103,203.259407 1146.7504,203.855075 C1142.60217,203.770196 1140.52806,203.729273 1136.37984,203.645909 C1138.34041,204.997909 1139.31993,205.673909 1141.27898,207.027425 C1164.07603,207.886824 1186.87308,208.781084 1209.6671,209.70869 C1198.97559,207.194152 1193.62681,205.942187 1182.92621,203.445838 C1172.0606,203.324582 1166.62704,203.266986 1155.76142,203.162403" id="Fill-1" fill="#DEDCDC"></path>
                <path d="M1204.89846,174.194135 C1202.89702,173.842494 1201.8963,173.666674 1199.89486,173.315032 C1197.50736,171.434055 1196.31437,170.492808 1193.92687,168.61183 C1191.41372,168.552718 1190.15714,168.52392 1187.64398,168.466324 C1187.55617,170.313956 1187.51227,171.237014 1187.42597,173.084647 C1186.08461,173.786413 1185.41393,174.138055 1184.07258,174.839822 C1171.85198,177.922745 1165.74471,179.47027 1153.5347,182.574413 C1156.0418,185.946835 1157.29384,187.632288 1159.79791,191.004709 C1166.98614,193.890593 1170.58026,195.33505 1177.76243,198.226996 C1190.68551,198.514978 1197.14855,198.665032 1210.07163,198.978781 C1210.30477,197.293328 1210.42286,196.450602 1210.65752,194.765149 C1212.65442,193.75418 1213.65363,193.249454 1215.65053,192.240001 C1214.99045,191.444261 1214.65889,191.047149 1213.99881,190.252925 C1215.37348,189.801248 1216.06081,189.575409 1217.43547,189.123732 C1212.42582,183.150378 1209.91872,180.164458 1204.89846,174.194135" id="Fill-3" fill="#DEDCDC"></path>
                <path d="M1230.79471,205.075513 C1234.79003,205.177065 1236.78844,205.228598 1240.78375,205.331665 C1237.79219,202.491253 1236.29641,201.072562 1233.30181,198.23215 C1236.77936,198.773253 1238.51888,199.044562 1241.99491,199.587181 C1243.71627,201.581836 1244.57619,202.579163 1246.29453,204.572302 C1249.43597,204.543504 1251.00594,204.529863 1254.14738,204.50258 C1248.87884,198.586822 1246.24154,195.631217 1240.96543,189.720006 C1234.38732,190.765836 1231.09902,191.291782 1224.52545,192.34519 C1225.2249,193.060598 1225.57613,193.418302 1226.27558,194.135226 C1224.38011,194.086724 1223.43238,194.063988 1221.53691,194.017002 C1225.24306,198.4398 1227.09462,200.651199 1230.79471,205.075513" id="Fill-5" fill="#DEDCDC"></path>
                <path d="M1433.10678,245.828764 C1426.64827,240.376809 1423.41599,237.651589 1416.94689,232.205697 C1407.53769,228.25428 1402.83082,226.280845 1393.41103,222.341553 C1388.48313,222.077822 1386.01842,221.945957 1381.09051,221.683742 C1386.13196,228.399787 1388.64966,231.758567 1393.68051,238.479159 C1383.92917,237.863787 1379.05274,237.559132 1369.29988,236.957401 C1366.03883,236.240477 1364.40831,235.881257 1361.14575,235.164334 C1358.16629,232.473975 1356.67657,231.128038 1353.6956,228.439195 C1359.05347,229.006065 1361.73164,229.292531 1367.088,229.863948 C1369.59358,228.370988 1370.84713,227.623751 1373.35423,226.130791 C1362.40384,223.689006 1356.92788,222.473419 1345.97143,220.051338 C1335.67052,219.717885 1330.52007,219.555706 1320.22067,219.238926 C1316.74313,223.255517 1315.00511,225.263813 1311.5306,229.280405 C1308.46637,229.187948 1306.93274,229.142477 1303.86699,229.05002 C1302.64523,227.711661 1302.0336,227.041724 1300.81033,225.701849 C1292.08392,225.709428 1287.72223,225.717006 1278.99583,225.735195 C1270.08321,231.757051 1265.63069,234.770253 1256.73321,240.804235 C1249.04234,240.635993 1245.19691,240.554145 1237.50454,240.394997 C1230.64181,242.459374 1227.2112,243.494594 1220.35301,245.568065 C1227.27175,255.451912 1230.72507,260.396109 1237.62263,270.287535 C1233.65002,272.08515 1231.66372,272.983957 1227.69263,274.784603 C1228.98706,276.530683 1229.63503,277.403724 1230.92946,279.15132 C1250.76673,276.941437 1270.60704,274.766414 1290.45188,272.627769 C1307.95768,272.893015 1325.46348,273.17645 1342.96927,273.476558 C1356.8643,280.181993 1363.80575,283.540773 1377.67353,290.275006 C1398.53575,291.238988 1419.39646,292.242378 1440.25414,293.285177 C1455.08478,285.937087 1462.50919,282.270621 1477.37163,274.955876 C1477.60932,270.237517 1477.72741,267.879096 1477.96358,263.160737 C1471.60651,259.403329 1468.4257,257.526899 1462.05955,253.774038 C1450.48389,250.586531 1444.69304,248.996567 1433.10678,245.828764" id="Fill-7" fill="#DEDCDC"></path>
                <path d="M1410.32714,295.42943 C1405.16458,298.451726 1402.58481,299.962874 1397.42678,302.989717 C1406.65884,303.653592 1411.27488,303.990076 1420.50542,304.667592 C1426.29022,303.511117 1429.18338,302.933637 1434.9697,301.781709 C1433.17112,299.832525 1432.27184,298.856417 1430.47175,296.907233 C1422.41451,296.311565 1418.3859,296.016004 1410.32714,295.42943" id="Fill-9" fill="#DEDCDC"></path>
                <path d="M1583.95123,289.30769 C1580.67808,289.407726 1579.04301,289.457743 1575.76985,289.557779 C1572.00315,286.479403 1570.11828,284.940972 1566.34703,281.865627 C1560.00359,281.724667 1556.83186,281.656461 1550.48841,281.521564 C1555.26341,286.268721 1557.64939,288.6423 1562.41682,293.394004 C1558.30948,294.629295 1556.25656,295.249214 1552.15073,296.487537 C1541.87707,296.558775 1536.73873,296.598183 1526.46507,296.684578 C1513.86598,300.52838 1507.57098,302.456344 1494.98703,306.322883 C1492.90081,307.095887 1491.8577,307.482389 1489.77299,308.255394 C1491.38232,309.787761 1492.18623,310.553187 1493.79556,312.087071 C1502.58857,311.95369 1506.98508,311.888515 1515.77961,311.767259 C1529.81544,308.364524 1543.8558,304.983008 1557.90222,301.622712 C1562.40774,300.370748 1564.66049,299.746282 1569.16752,298.498865 C1574.54961,297.700093 1577.24141,297.301465 1582.6235,296.507241 C1587.59985,295.390174 1590.08879,294.832398 1595.06665,293.718362 C1590.6217,291.952578 1588.39922,291.070443 1583.95123,289.30769" id="Fill-11" fill="#DEDCDC"></path>
                <path d="M1332.91407,204.483028 C1339.57242,205.842606 1342.90008,206.524669 1349.5554,207.891826 C1350.82712,208.998283 1351.46298,209.551512 1352.73318,210.65797 C1349.16329,210.541261 1347.37835,210.483665 1343.80997,210.368472 C1346.23683,212.642014 1347.4495,213.77727 1349.87485,216.050813 C1361.53983,216.131144 1367.37307,216.1751 1379.03805,216.275135 C1381.35742,214.521476 1382.51711,213.645404 1384.83799,211.893261 C1389.24056,211.864463 1391.44032,211.850822 1395.84289,211.823539 C1399.63987,215.333889 1401.53685,217.090579 1405.32929,220.602445 C1413.46072,220.893458 1417.52567,221.040481 1425.65709,221.342104 C1424.08107,219.920382 1423.2923,219.211037 1421.71477,217.789315 C1417.66798,217.640777 1415.64383,217.566508 1411.59704,217.421001 C1406.17559,213.113396 1403.4626,210.961109 1398.03509,206.656535 C1379.16068,203.094651 1360.28022,199.566113 1341.39522,196.067889 C1337.33178,197.066732 1335.30006,197.565396 1331.23813,198.565754 C1326.41166,198.471781 1323.99843,198.42631 1319.17347,198.336884 C1317.43091,196.21188 1316.55888,195.149378 1314.81481,193.025889 C1309.0724,191.731485 1306.20044,191.085799 1300.455,189.797458 C1296.52933,192.375656 1294.56877,193.665512 1290.64612,196.245225 C1297.28631,198.658212 1300.60488,199.866221 1307.24052,202.28527 C1317.51115,203.156795 1322.64496,203.596346 1332.91407,204.483028" id="Fill-13" fill="#DEDCDC"></path>
                <path d="M976.965983,161.093074 C974.307488,163.271127 972.979754,164.359396 970.322773,166.53745 C972.994894,168.57606 974.331711,169.594607 977.000803,171.633217 C982.927915,170.690455 985.892227,170.220589 991.819339,169.28389 C991.159257,166.493495 990.827702,165.09754 990.166106,162.307145 C984.886965,161.819091 982.246638,161.57658 976.965983,161.093074" id="Fill-15" fill="#DEDCDC"></path>
                <path d="M790.838639,224.312715 C781.238687,223.841334 776.437954,223.607917 766.838001,223.150177 C767.072664,225.995136 767.190752,227.416858 767.425414,230.261818 C771.002876,231.79267 772.792364,232.558096 776.368312,234.090464 C773.840017,235.634957 772.575869,236.406446 770.047574,237.950939 C766.224852,239.6758 764.314248,240.539746 760.49304,242.266123 C760.712563,245.399065 760.821567,246.966293 761.039576,250.097719 C766.68812,252.045387 769.510122,253.019979 775.155639,254.970679 C779.835256,252.012042 782.177335,250.532724 786.861494,247.575603 C795.818018,242.290374 800.299308,239.650033 809.267943,234.375414 C812.448751,226.086078 814.039911,221.942168 817.228288,213.654347 C811.617592,213.6498 808.812244,213.648284 803.203063,213.646769 C798.253962,217.911935 795.781683,220.044517 790.838639,224.312715" id="Fill-17" fill="#DEDCDC"></path>
                <path d="M1262.77704,211.075392 C1262.60143,210.135661 1262.51362,209.665796 1262.33648,208.726065 C1259.32827,208.644217 1257.82492,208.603293 1254.8167,208.521446 C1255.38746,209.180773 1255.67359,209.509679 1256.24435,210.167491 C1258.85743,210.529742 1260.16397,210.711625 1262.77704,211.075392" id="Fill-19" fill="#DEDCDC"></path>
                <path d="M1221.60777,210.000916 C1222.26482,210.80575 1222.59183,211.208925 1223.24889,212.013759 C1226.84906,212.1047 1228.64915,212.150171 1232.24932,212.241113 C1231.58318,211.434763 1231.2486,211.033104 1230.58094,210.226754 C1226.99289,210.135813 1225.19734,210.090342 1221.60777,210.000916" id="Fill-21" fill="#DEDCDC"></path>
                <path d="M1251.62211,209.085891 C1248.04919,208.990402 1246.26273,208.943415 1242.6883,208.849442 C1241.81778,209.502707 1241.38328,209.828581 1240.51275,210.481846 C1239.06088,211.23363 1238.3357,211.609523 1236.88533,212.359792 C1237.47123,213.063074 1237.76494,213.4132 1238.35235,214.116483 C1241.56041,214.063433 1243.16519,214.039182 1246.37477,213.987648 C1245.89484,213.42381 1245.65564,213.140375 1245.17572,212.576536 C1247.42091,212.635648 1248.54426,212.664447 1250.78944,212.725074 C1250.18689,212.021792 1249.8841,211.670151 1249.28155,210.966868 C1250.81367,210.90624 1251.58124,210.875926 1253.11335,210.813783 C1252.51686,210.122626 1252.21861,209.777048 1251.62211,209.085891" id="Fill-23" fill="#DEDCDC"></path>
                <path d="M1260.0589,212.973952 C1259.83029,212.967889 1259.71675,212.964857 1259.48965,212.958795 C1260.59938,214.236526 1261.15348,214.874633 1262.26321,216.152364 C1265.768,216.247853 1267.52116,216.296355 1271.02595,216.394875 C1270.45973,215.752221 1270.17511,215.430893 1269.60738,214.789754 C1273.21209,214.88979 1275.01369,214.939808 1278.61689,215.04136 C1277.94167,214.288059 1277.60406,213.910651 1276.92884,213.157351 C1279.55402,213.343781 1280.86813,213.437754 1283.49332,213.627216 C1281.99451,212.328265 1281.24359,211.679548 1279.74478,210.380597 C1275.88724,210.512463 1273.95847,210.579153 1270.10092,210.71405 C1270.48395,211.54162 1270.67471,211.955404 1271.05623,212.782974 C1266.65669,212.858759 1264.45844,212.896651 1260.0589,212.973952" id="Fill-25" fill="#DEDCDC"></path>
                <path d="M93.7010393,63.1494646 C93.3043846,63.4495722 86.8004586,68.8515094 87.5059589,68.8211955 C88.1978337,68.7923973 93.8039878,68.5589803 93.8039878,68.5589803 C96.9514883,66.5567471 98.5244816,65.5563883 101.673496,63.5556709 C98.4851189,63.3934915 96.8894164,63.3116439 93.7010393,63.1494646" id="Fill-27" fill="#DEDCDC"></path>
                <path d="M552.528341,51.24853 C552.379974,52.4065211 552.30579,52.9840009 552.157423,54.1419919 C548.781317,54.5451668 547.093263,54.74827 543.717156,55.1544762 C542.322809,57.631122 541.626392,58.8709605 540.232045,61.349122 C544.203134,61.2884942 546.187922,61.2581803 550.15901,61.1990682 C555.518391,60.8565211 558.198081,60.6852475 563.557461,60.3457318 C566.806396,58.610261 568.430864,57.7417677 571.681313,56.0078126 C569.025846,55.4515525 567.698113,55.1741803 565.041132,54.6194359 C563.807263,53.6903148 563.191086,53.2249964 561.957217,52.2958753 C560.338805,50.3057677 559.530356,49.3114717 557.910431,47.3213641 C557.848359,44.4764045 557.81808,43.0546825 557.756008,40.2097229 C553.298941,40.7462789 551.071922,41.014557 546.614855,41.5541444 C545.022181,42.5833013 544.224329,43.097122 542.631655,44.1247632 C542.183526,45.2630502 541.959461,45.8329516 541.511332,46.9712386 C543.297792,47.7169605 544.192536,48.0898215 545.978997,48.8355435 C548.599643,49.7995256 549.909209,50.2830323 552.528341,51.24853" id="Fill-29" fill="#DEDCDC"></path>
                <path d="M542.308275,53.7665543 C543.128836,52.2144825 543.54063,51.4384466 544.362704,49.8863749 C542.04939,49.3301148 540.892733,49.0512269 538.579418,48.4949668 C534.824824,48.9936305 532.949041,49.2437202 529.194447,49.7438996 C525.550371,52.0841327 523.72909,53.2542493 520.086528,55.5975139 C519.440072,57.0904735 519.1176,57.8361955 518.471144,59.3291552 C521.621673,59.2776215 523.197694,59.2518547 526.346708,59.2003211 C532.729518,57.023783 535.922437,55.9370296 542.308275,53.7665543" id="Fill-31" fill="#DEDCDC"></path>
                <path d="M795.608942,93.0256332 C791.751399,92.8786108 789.824142,92.8058574 785.966599,92.6618664 C785.15058,92.0995435 784.743328,91.8176242 783.927309,91.2553013 C777.898763,91.0537139 774.886004,90.9551937 768.857458,90.7596691 C769.178416,89.8108439 769.338894,89.3364314 769.659851,88.3876063 C772.631734,87.0462161 774.118432,86.3762789 777.091828,85.0364045 C776.946489,83.9163058 776.87382,83.3554987 776.729994,82.2354 C770.557623,80.0800816 767.470681,79.0039381 761.295282,76.8546825 C760.80022,74.1067274 760.553447,72.7319919 760.058385,69.9825211 C761.078787,68.6214269 761.587474,67.9408798 762.607876,66.5797857 C767.239047,66.3615256 769.555389,66.2539112 774.185046,66.0401982 C778.283306,66.8829247 780.33168,67.3042879 784.428426,68.1500457 C784.819025,69.5763148 785.015839,70.2886915 785.406438,71.7149605 C779.682195,71.5573283 776.819317,71.4800278 771.095075,71.3269426 C770.95882,72.6440816 770.890692,73.303409 770.755951,74.6220637 C778.343864,77.0380816 782.136307,78.249122 789.719679,80.6742341 C789.998246,82.4475973 790.137529,83.3342789 790.41761,85.1091578 C793.796744,86.2626018 795.486312,86.8385659 798.865446,87.9935256 C799.081941,89.2394269 799.189432,89.8608619 799.405926,91.1067632 C797.887435,91.8737049 797.127433,92.2571758 795.608942,93.0256332 M708.855108,85.7214987 C699.539778,85.580539 694.88287,85.5138484 685.56754,85.38653 C682.759164,85.5972117 681.355733,85.7017946 678.547357,85.9124762 C678.785047,82.7658933 678.904649,81.1926018 679.143853,78.0460188 C681.272466,76.8713552 682.336772,76.2832655 684.465385,75.1086018 C686.693918,74.7433193 687.808185,74.5614359 690.035204,74.1976691 C694.876814,73.8839202 697.296105,73.7293193 702.137715,73.4201175 C703.212619,72.5789067 703.750071,72.1590592 704.824975,71.3178484 C706.782511,71.8028709 707.762036,72.0453821 709.721086,72.5319202 C709.969374,75.3920368 710.093518,76.8228529 710.341806,79.6829695 C715.716326,80.759113 718.403585,81.2971848 723.776591,82.3778753 C724.277709,83.6828888 724.529024,84.3361534 725.030141,85.6411668 C718.561036,85.669965 715.325727,85.6866377 708.855108,85.7214987 M661.748576,24.3222072 C655.164411,26.5320906 651.874599,27.6400637 645.29649,29.8575256 C645.061828,31.2807632 644.945254,31.9916242 644.710592,33.4163776 C648.182077,34.3136691 649.917063,34.7638305 653.387035,35.6626377 C653.349186,37.5724135 653.329505,38.5273013 653.291656,40.4370771 C647.403907,44.6810233 644.462304,46.8045121 638.582125,51.0530054 C629.422732,51.0969605 624.843035,51.1212117 615.683643,51.1757767 C615.339976,50.1648081 615.167386,49.6585659 614.822205,48.6475973 C620.83107,47.0273193 623.836259,46.2179381 629.848152,44.6037229 C631.015407,38.7986108 631.601305,35.8960547 632.771588,30.0909426 C642.562298,26.3699112 647.459923,24.5131848 657.261231,20.8057946 C659.238449,20.789122 660.227057,20.7815435 662.204275,20.7648709 C662.021087,22.1881085 661.93025,22.8989695 661.748576,24.3222072 M1092.58371,171.502261 C1109.03126,176.957248 1125.47426,182.427391 1141.91121,187.915723 C1141.95814,186.495517 1141.98388,185.784656 1142.03081,184.364449 C1123.66963,176.1994 1105.29332,168.069212 1086.90035,159.973884 C1085.91174,159.537364 1085.41668,159.319104 1084.42807,158.8841 C1084.25094,156.959167 1084.16161,155.9967 1083.98448,154.070252 C1083.90121,153.145678 1083.85882,152.683391 1083.77556,151.758817 C1094.97424,156.048234 1100.57131,158.19749 1111.75637,162.505095 C1116.61312,162.803687 1119.04149,162.953741 1123.89824,163.253848 C1128.75802,161.583552 1131.18942,160.74992 1136.05222,159.082656 C1133.0319,156.360467 1131.52097,154.999373 1128.49762,152.2787 C1115.97726,148.510683 1109.71556,146.632736 1097.18158,142.887454 C1094.5246,139.645382 1093.19686,138.025104 1090.53685,134.783032 C1092.09622,133.123346 1092.87591,132.294261 1094.43527,130.634575 C1099.85067,131.440925 1102.55761,131.8441 1107.97149,132.653481 C1108.69668,134.176754 1109.05851,134.937633 1109.78369,136.460907 C1114.07876,138.488907 1116.22555,139.502907 1120.51759,141.532422 C1122.43576,140.768512 1123.39561,140.386557 1125.31378,139.622647 C1122.18596,137.258162 1120.62205,136.077436 1117.49272,133.715983 C1129.40902,131.710718 1135.36943,130.713391 1147.29481,128.730862 C1151.31737,126.53462 1153.32941,125.437257 1157.355,123.244046 C1152.96152,119.036476 1150.76327,116.934207 1146.36525,112.729669 C1133.01978,107.721813 1119.66827,102.732144 1106.30918,97.7621803 C1102.45012,93.071104 1100.51832,90.7263238 1096.65321,86.0367632 C1101.49028,86.1201265 1103.90957,86.1625659 1108.74664,86.2504762 C1125.54087,91.3007722 1142.32906,96.3677408 1159.1127,101.454413 C1162.95662,100.970907 1164.87933,100.729911 1168.72325,100.249436 C1164.18443,98.3184404 1161.91351,97.3544583 1157.37166,95.4264942 C1147.08437,92.783122 1141.93846,91.4644673 1131.6436,88.836252 C1128.98814,85.1713013 1127.6604,83.338826 1125.00342,79.675391 C1134.42019,79.8648529 1139.12857,79.9633731 1148.54382,80.1679919 C1145.18588,75.6239381 1143.50388,73.3534269 1140.1414,68.8108888 C1134.49437,66.3190861 1131.66934,65.0747004 1126.01928,62.5874448 C1127.00335,61.458252 1127.49538,60.8928978 1128.47945,59.7637049 C1135.04696,62.1994269 1138.3292,63.4195614 1144.89217,65.8628619 C1145.38421,64.8913013 1145.62947,64.4062789 1146.1215,63.4347184 C1137.35876,59.8819291 1132.97437,58.1085659 1124.20254,54.5663865 C1109.59899,53.4053641 1102.2957,52.8309157 1087.6876,51.7002072 C1084.23277,49.6873641 1082.50384,48.6809426 1079.04749,46.6680996 C1080.41459,43.668539 1081.09889,42.1695166 1082.4675,39.1699561 C1086.62481,40.4855794 1088.70346,41.1449067 1092.85925,42.4620457 C1102.53944,43.0668081 1107.37954,43.3729785 1117.05822,43.9898664 C1124.57649,39.8686915 1128.33714,37.8088619 1135.86449,33.6967812 C1139.10889,35.0897049 1140.73184,35.7869247 1143.97472,37.1813641 C1143.60229,39.3957946 1143.41456,40.502252 1143.04213,42.7166825 C1145.23735,44.9811309 1146.33497,46.1133552 1148.52868,48.3778036 C1164.43272,53.4978215 1172.37792,56.0684404 1188.25774,61.224835 C1190.77241,60.3078395 1192.0305,59.8500996 1194.54517,58.933104 C1189.80045,55.622826 1187.42658,53.967687 1182.67732,50.6604404 C1170.95784,46.496826 1165.09431,44.4203238 1153.36121,40.2764135 C1162.97933,40.1142341 1167.78763,40.0369336 1177.40726,39.8899112 C1175.68287,38.2499291 1174.81992,37.4299381 1173.09553,35.7899561 C1177.30129,35.3519202 1179.40416,35.1336601 1183.60991,34.6986556 C1178.42009,33.1723507 1175.82519,32.4099561 1170.63234,30.8881982 C1169.61194,29.7847722 1169.10174,29.2330592 1168.08133,28.1311489 C1179.00599,29.2724673 1184.46832,29.8469157 1195.38844,31.0064224 C1196.22868,30.1182251 1196.64804,29.6756422 1197.48677,28.7874448 C1183.51908,25.8015256 1169.54532,22.8337946 1155.56854,19.8872834 C1114.9069,17.8835345 1074.24222,16.002557 1033.56997,14.242835 C1028.15458,12.8620368 1025.44612,12.1723955 1020.02921,10.7946287 C1016.89685,10.4975525 1015.32991,10.3490143 1012.19604,10.0519381 C1007.92973,9.64876323 1005.79657,9.44869148 1001.53026,9.04854798 C996.246581,8.88485291 993.603225,8.80452108 988.319542,8.6438574 C985.438497,11.4312206 984.000245,12.8241444 981.122227,15.6115076 C979.031464,15.5008619 977.986839,15.4462969 975.896075,15.3356511 C967.844893,12.4967543 963.816274,11.0795794 955.759036,8.24826099 C940.331893,8.10730135 924.90475,7.98907713 909.476093,7.89358834 C899.580921,4.81066457 894.631821,3.27223408 884.727565,0.204467265 C868.062011,0.765274439 859.729234,1.05628789 843.066709,1.65801883 C831.027784,5.06984843 825.01135,6.78106816 812.983023,10.2156332 C814.063983,14.2185839 814.604463,16.2193013 815.683909,20.222252 C811.691625,20.9300816 809.694726,21.2832386 805.702441,21.9925839 C803.914467,17.9911489 803.019723,15.9904314 801.230235,11.9905121 C799.43015,10.6036511 798.530864,9.90946278 796.730778,8.52411749 C792.085982,7.87085291 789.763584,7.54497848 785.117273,6.89626099 C784.473845,9.29257489 784.151374,10.489974 783.509459,12.8862879 C785.224764,14.8400188 786.081659,15.8161265 787.796963,17.7698574 C771.279777,17.1620637 763.021184,16.8680188 746.50097,16.2996332 C738.720784,18.4200906 734.832963,19.4841085 727.058833,21.6136601 C726.659151,20.9770682 726.459309,20.6572565 726.058113,20.0206646 C725.216357,18.6807901 724.796993,18.0108529 723.955237,16.6694628 C722.003757,16.9771489 721.028773,17.1317498 719.077293,17.4394359 C717.643583,19.6387094 716.927485,20.7375883 715.495289,22.9368619 C711.27894,24.8072296 709.171523,25.7424135 704.958202,27.6142969 C694.693626,27.5097139 689.559824,27.4612117 679.295248,27.3717857 C678.942498,26.1001175 678.765366,25.4650413 678.412616,24.1933731 C689.070819,23.850826 694.39992,23.6840996 705.059637,23.3582251 C707.260919,22.2805659 708.36156,21.7424942 710.562842,20.6663507 C698.122721,17.3575883 691.90039,15.7085121 679.448157,12.4224852 C664.167867,12.801409 656.528479,12.9984493 641.251218,13.4107184 C632.11302,16.0374179 627.546949,17.354557 618.416321,19.9948978 C614.315032,23.368835 612.265145,25.0558036 608.166884,28.4327722 C601.946067,29.7878036 598.836415,30.466835 592.618626,31.8279291 C589.68005,33.3739381 588.210005,34.1469426 585.272944,35.6944673 C585.324418,37.4420637 585.351669,38.315104 585.403143,40.0627004 C588.431042,40.2612565 589.944991,40.3612924 592.971376,40.5613641 C594.155284,43.1047004 594.747238,44.3763686 595.931147,46.9212206 C601.634193,45.6692565 604.486474,45.0447901 610.192549,43.7973731 C610.287927,47.2167812 610.33486,48.9280009 610.430239,52.347409 C608.766408,52.3655973 607.93525,52.3746915 606.272934,52.3943955 C601.84766,52.0897408 599.634266,51.9381713 595.207479,51.636548 C590.082761,52.1443058 587.519645,52.3989426 582.39644,52.9097318 C576.364866,56.6262161 573.350593,58.485974 567.326589,62.2085211 C560.033896,62.8905839 556.388306,63.2331309 549.097126,63.9227722 C546.912498,67.1042161 545.822454,68.695696 543.640853,71.8786556 C546.558234,72.199983 548.017681,72.3621623 550.936575,72.6865211 C549.337844,74.7387722 548.539993,75.7648978 546.942777,77.8186646 C539.963471,77.1896511 536.473818,76.8774179 529.492998,76.255983 C522.54397,77.0987094 519.070971,77.523104 512.123458,78.373409 C509.89341,80.2816691 508.779144,81.2350413 506.550611,83.1433013 C506.023756,87.071983 505.760329,89.0363238 505.234989,92.9650054 C508.89269,93.8183417 510.721541,94.244252 514.379242,95.1006197 C521.164763,94.9687543 524.557523,94.9050951 531.344557,94.7808081 C536.001465,94.5034359 538.329919,94.3655076 542.986827,94.0911668 C545.004922,92.285974 546.013212,91.3841354 548.031306,89.5789426 C556.513964,84.9227274 560.759078,82.5976511 569.253847,77.9520457 C573.671551,78.358252 575.880403,78.5613552 580.298107,78.9705928 C585.335016,76.8607453 587.854227,75.8058215 592.895678,73.6990054 C593.316556,75.2935166 593.526995,76.0907722 593.947873,77.6867991 C604.262409,81.3153731 609.415893,83.1342072 619.719831,86.7779381 C618.154408,87.7070592 617.37321,88.1708619 615.807786,89.099983 C610.736056,89.0211668 608.198677,88.9817587 603.126947,88.905974 C604.789264,90.2503955 605.621936,90.9233641 607.284252,92.2677857 C610.372709,92.5769874 611.918451,92.7300726 615.006907,93.0407901 C618.858394,92.2435345 620.784138,91.8464224 624.637138,91.0521982 C624.974749,88.8726287 625.142797,87.7843596 625.480408,85.6047901 C627.171489,85.1864583 628.017787,84.9772924 629.710382,84.5604762 C628.538586,83.8844762 627.952687,83.5479919 626.780891,82.8719919 C619.790987,80.8758215 616.295278,79.8784942 609.302346,77.8883865 C608.003378,75.152557 607.35238,73.7854 606.051897,71.0495704 C612.097097,70.9798484 615.118939,70.9465031 621.162625,70.8828439 C622.897611,71.8392475 623.765104,72.3166915 625.498576,73.2730951 C630.367436,75.5117767 632.800353,76.6318753 637.664672,78.875104 C637.440607,81.648826 637.327061,83.035687 637.102997,85.809409 C642.282217,88.6907453 644.872584,90.1321713 650.047263,93.0180547 C652.639144,88.975696 653.935084,86.9552744 656.529993,82.9144314 C660.472317,81.8382879 662.443479,81.3017318 666.387317,80.2286197 C666.77943,83.517678 666.974729,85.1606915 667.366842,88.4482341 C670.998806,90.4610771 672.812518,91.4674987 676.441454,93.4818574 C688.003484,93.3060368 693.783743,93.2241892 705.345773,93.0680726 C708.753673,94.29427 710.45838,94.9081265 713.864766,96.1358395 C713.85871,99.065678 713.854168,100.529839 713.848112,103.459678 C709.519731,105.348234 707.354784,106.294028 703.027917,108.1841 C690.987478,108.253822 684.968016,108.294745 672.926064,108.385687 C665.899825,105.857508 662.385949,104.594934 655.353655,102.074333 C647.68096,102.500243 643.844613,102.716987 636.171918,103.151992 C635.820682,105.375517 635.645063,106.486521 635.293827,108.710046 C632.841229,108.734297 631.613417,108.746422 629.159305,108.772189 C626.696109,107.903696 625.463755,107.470207 622.999045,106.604745 C610.092628,105.140584 603.637148,104.416082 590.724675,102.976171 C591.742049,98.8822789 592.250736,96.8345749 593.269624,92.7406825 C576.673712,93.5652206 568.37727,93.9865839 551.7859,94.8520457 C546.200941,96.2631578 543.409219,96.9694717 537.827288,98.3851309 C531.259776,98.4866825 527.97602,98.5397318 521.406995,98.6473462 C518.245868,98.5412475 516.663792,98.4897139 513.502665,98.3851309 C504.562795,100.678378 500.095131,101.82879 491.161316,104.134162 C489.352147,108.196225 488.448319,110.227257 486.640664,114.289319 C470.118936,119.342647 453.601749,124.411131 437.090619,129.497804 C437.257153,131.918369 437.34042,133.129409 437.506955,135.548458 C441.049596,135.472674 442.822431,135.434781 446.365072,135.362028 C444.259168,137.715902 443.206974,138.893597 441.102584,141.248987 C438.365364,141.718853 436.996754,141.955301 434.261048,142.426683 C430.977292,148.537965 429.337685,151.595122 426.059984,157.70792 C438.297236,165.193938 444.409049,168.942252 456.61905,176.451005 C463.707361,176.307014 467.250002,176.235777 474.336798,176.099364 C474.957517,175.614342 475.267877,175.37183 475.89011,174.886808 C488.599714,174.642781 494.955273,174.526073 507.666391,174.306297 C511.820668,172.811822 513.897806,172.0661 518.055111,170.576171 C525.222147,170.456431 528.805665,170.397319 535.9727,170.285158 C539.409365,171.890279 541.126184,172.692082 544.561334,174.298718 C555.184716,174.603373 560.497164,174.761005 571.119032,175.083848 C568.166831,181.108736 566.692245,184.123454 563.744585,190.149857 C574.239282,198.828727 579.480574,203.171194 589.949533,211.865221 C582.076997,216.991301 578.143757,219.557373 570.284846,224.692548 C570.203093,227.066126 570.162216,228.252916 570.080463,230.626494 C575.100719,232.627212 577.610847,233.62757 582.629588,235.631319 C581.451736,241.342458 580.864324,244.199543 579.689499,249.910683 C586.393266,253.48166 589.742122,255.268665 596.43832,258.847221 C595.593536,263.595893 595.171144,265.970987 594.32636,270.71966 C613.055427,270.49079 631.782979,270.290718 650.512045,270.123992 C664.712889,264.811481 678.922817,259.521705 693.140314,254.253149 C698.346786,250.845866 700.950778,249.142225 706.161792,245.737974 C712.682371,245.166557 715.943418,244.881606 722.463997,244.314736 C722.432204,241.474324 722.415551,240.054117 722.382244,237.213705 C724.229262,236.370978 725.152771,235.949615 727.001303,235.106889 C729.346411,234.038324 730.518207,233.504799 732.863315,232.436234 C741.473144,227.781535 745.78033,225.456458 754.402271,220.813884 C752.175251,213.785606 751.062499,210.272225 748.832452,203.245463 C744.997618,200.641499 743.080958,199.341032 739.244611,196.738584 C752.45079,191.400306 765.666053,186.081732 778.888886,180.781346 C792.034507,172.032754 805.195268,163.303866 818.371169,154.59923 C814.972353,153.941418 813.273702,153.614028 809.874885,152.957732 C795.372766,154.282449 780.870646,155.626871 766.371554,156.992512 C761.752494,156.031561 759.442208,155.552602 754.820121,154.596198 C743.526059,145.32166 737.871459,140.68818 726.547119,131.43183 C719.545103,125.711597 716.041825,122.852996 709.029212,117.138826 C710.241885,116.477983 710.847465,116.147561 712.060138,115.486718 C717.843424,118.581768 720.733553,120.130808 726.510784,123.230404 C738.517915,129.672109 744.516182,132.899023 756.500605,139.361947 C757.168256,142.341804 757.502839,143.831732 758.168977,146.811588 C762.535206,148.638001 764.716807,149.551965 769.080009,151.379893 C777.624738,151.120709 781.897103,150.993391 790.441833,150.744817 C804.324748,146.032521 818.213718,141.339929 832.110258,136.670073 C837.183502,135.08314 839.720881,134.291947 844.795639,132.709561 C844.220338,130.752799 843.931174,129.77366 843.355873,127.816898 C837.55442,127.465257 834.653693,127.289436 828.852239,126.942342 C811.674971,123.321346 782.093917,121.044772 777.374937,115.721651 C777.237167,115.565535 776.551348,106.510772 776.551348,106.510772 C780.801004,106.504709 782.926589,106.501678 787.176244,106.498647 C788.183021,109.045014 788.685652,110.316683 789.690914,112.86305 C799.198515,115.280584 803.950802,116.491624 813.452348,118.922799 C823.968239,119.166826 829.226185,119.292629 839.742076,119.553328 C859.178157,121.025068 878.61121,122.530153 898.041234,124.0701 C903.981971,125.647938 906.950826,126.439131 912.888535,128.021517 C913.790848,130.42844 914.242005,131.631902 915.144319,134.03731 C915.66209,137.305149 915.920975,138.937552 916.437232,142.203875 C929.713053,149.647454 942.976762,157.113768 956.22836,164.599786 C960.488613,165.042369 962.617226,165.265176 966.877479,165.71079 C969.788803,163.22505 971.245223,161.983696 974.159575,159.499472 C973.002918,152.343875 972.424589,148.765319 971.264904,141.609723 C973.4026,137.781077 974.471448,135.86827 976.610659,132.039624 C982.446933,131.024109 985.365827,130.517866 991.203616,129.506898 C1002.7172,130.119239 1008.47172,130.429956 1019.98228,131.060485 C1034.80687,135.983463 1049.62238,140.92766 1064.43031,145.897624 C1069.68372,154.150584 1072.30739,158.277822 1077.54717,166.535328 C1083.5636,168.519373 1086.57031,169.512153 1092.58371,171.502261" id="Fill-33" fill="#DEDCDC"></path>
                <path d="M335.239834,80.8847641 C337.173147,80.3466924 338.139047,80.0784143 340.07236,79.5418583 C341.259296,78.5278583 341.852764,78.0216161 343.041215,77.0076161 C345.09413,76.8666565 346.119073,76.7969345 348.171989,76.6574906 C349.601157,75.790513 350.314227,75.3570242 351.744909,74.4915623 C350.08562,74.3445399 349.255976,74.2717865 347.596688,74.1247641 C345.99493,74.1884233 345.19405,74.2202529 343.593806,74.2854278 C341.895155,75.4146206 341.047343,75.9784592 339.350206,77.107652 C335.341269,77.2167821 333.335286,77.2713471 329.326348,77.3819928 C328.454313,78.459652 328.01981,78.9992395 327.147775,80.0768987 C328.109133,80.0496161 328.590569,80.0359749 329.551927,80.0102081 C329.551927,80.0102081 329.227942,80.5816251 328.834315,81.3288628 C331.395917,81.1500108 332.676718,81.0621004 335.239834,80.8847641" id="Fill-35" fill="#DEDCDC"></path>
                <path d="M311.210431,82.5455112 C314.258011,82.3333139 315.782558,82.2272152 318.830138,82.0165336 C320.001935,80.9449372 320.587833,80.4098969 321.761144,79.3398161 C320.601459,78.674426 320.021616,78.3409731 318.861931,77.675583 C316.840809,78.5683274 315.829491,79.0139417 313.809882,79.9066861 C312.769799,80.9616099 312.250515,81.4905874 311.210431,82.5455112" id="Fill-37" fill="#DEDCDC"></path>
                <path d="M264.714476,81.0990834 C263.716784,80.4094422 263.218694,80.0638637 262.219488,79.3742224 C264.13312,78.6360789 265.089936,78.267765 267.003567,77.5296215 C268.490266,78.1601507 269.235129,78.4754152 270.721827,79.1074601 C268.319189,79.9032 267.117114,80.3018278 264.714476,81.0990834 M264.682683,87.498348 C260.157489,87.6408233 257.895649,87.7135767 253.371968,87.8590834 C253.010134,86.9739175 252.829974,86.5328502 252.469655,85.6476843 C253.727746,84.3214511 254.356035,83.6590924 255.615641,82.3328592 C255.965363,82.3222493 256.140982,82.3161865 256.490704,82.3055767 C261.07797,82.9588413 263.370089,83.2862314 267.955841,83.944043 C266.646275,85.365765 265.990735,86.076626 264.682683,87.498348 M243.519187,89.3914511 C240.454953,90.5115498 238.924351,91.0738726 235.861631,92.195487 C231.301616,92.3470565 229.021609,92.424357 224.461593,92.5789578 C226.758254,90.9495857 227.905828,90.1371731 230.202489,88.5093166 C232.42648,88.3441058 233.539233,88.2622583 235.763225,88.0970475 C236.747292,87.5286619 237.239325,87.2452269 238.221878,86.6768413 C241.708503,86.3358099 243.452573,86.166052 246.939198,85.8265363 C245.570588,87.2528054 244.886283,87.9651821 243.519187,89.3914511 M207.517473,88.9443211 C209.951904,87.0785004 211.169119,86.146348 213.605063,84.282043 C218.7101,82.3358906 221.262619,81.3628143 226.370683,79.4196933 C230.976117,79.2635767 233.278834,79.1877919 237.884267,79.0347067 C227.512201,83.5939175 222.329953,85.87807 211.971512,90.4539534 C210.189594,89.849191 209.299392,89.5475677 207.517473,88.9443211 M223.500236,40.6391193 C223.500236,40.6391193 231.247114,39.700904 231.840582,39.6812 C232.432536,39.661496 227.401683,43.7205274 227.401683,43.7205274 C220.796322,44.1676574 217.494399,44.393496 210.889038,44.8466888 C210.628639,44.055496 210.498439,43.6598996 210.23804,42.8687067 C215.542918,41.9744466 218.195357,41.5288323 223.500236,40.6391193 M222.622145,31.996626 C222.776568,31.8617291 222.853779,31.7950386 223.008202,31.658626 C225.737853,31.5661686 227.103435,31.5206978 229.833085,31.4297561 C230.696036,30.8659175 231.127512,30.5855139 231.990463,30.0216753 C236.444502,29.8731372 238.670007,29.8003839 243.124046,29.6548771 C241.85687,30.8052897 241.222526,31.3812538 239.95535,32.5316664 C237.552713,33.5881058 236.352151,34.1155677 233.951027,35.1720072 C227.734752,35.3781417 224.626614,35.4827247 218.410338,35.694922 C220.09385,34.2156036 220.937119,33.4759444 222.622145,31.996626 M217.99703,67.1455946 C218.423964,64.7735318 218.637431,63.5867426 219.064364,61.2146798 C223.538084,60.1764287 225.775701,59.658061 230.249421,58.6213256 C232.9821,58.9244646 234.349196,59.0760341 237.081874,59.3806888 C233.540747,61.7648771 231.772454,62.9577291 228.234355,65.3434332 C224.139122,66.0618726 222.092263,66.4226081 217.99703,67.1455946 M251.305428,71.363774 C250.448532,72.2368143 250.020085,72.6733345 249.163189,73.5448592 C250.357695,73.5069668 250.955705,73.4872628 252.150211,73.4493704 C250.674111,74.9620341 249.936817,75.7198816 248.460717,77.234061 C240.146108,77.5038547 235.988803,77.6402673 227.674194,77.9206709 C225.032352,77.5644825 223.710675,77.3871462 221.067319,77.0309578 C222.926449,75.9472359 223.857528,75.404617 225.716657,74.3208951 C230.558267,73.3129578 232.980586,72.8097471 237.823709,71.8048413 C243.216397,71.6259892 245.91274,71.5380789 251.305428,71.363774 M256.584569,78.426913 C255.184166,79.8925901 254.483207,80.6246709 253.084318,82.090348 C250.292596,82.8663839 248.896734,83.2559175 246.105012,84.0334691 C243.22548,84.3714691 241.787229,84.5397112 238.909211,84.8777112 C238.909211,84.8777112 244.294329,79.371191 244.848434,78.8058368 C249.543191,78.6527516 251.889812,78.5769668 256.584569,78.426913 M256.369588,72.750635 C257.895649,74.0374601 258.657165,74.6816305 260.181712,75.9699713 C256.967598,76.4277112 255.361298,76.6565812 252.147183,77.1143211 C253.835237,75.3682404 254.68002,74.4952 256.369588,72.750635 M418.524151,23.7815587 L418.524151,23.7815587 C417.323589,23.616348 416.724065,23.5329848 415.523503,23.367774 C417.373549,20.7850296 418.300086,19.4921417 420.151646,16.9093973 C411.040699,14.1478009 406.483712,12.7700341 397.36671,10.0205632 C389.13234,10.7435498 385.015912,11.1088323 376.783056,11.8424287 C371.178416,13.3444825 368.377609,14.097783 362.775997,15.6058996 C360.181088,18.9874152 358.883634,20.6774152 356.291753,24.0604466 C351.925523,23.7633704 349.742408,23.6148323 345.376178,23.3207874 C346.307257,21.4625453 346.773554,20.5349399 347.706146,18.6766978 C354.272144,16.13033 357.5559,14.8571462 364.12644,12.3168413 C356.332629,12.2789489 352.435724,12.2622762 344.643427,12.233478 C341.956167,12.7185004 340.61178,12.9610117 337.92452,13.4460341 C335.400767,15.1148143 334.138133,15.9499623 331.61438,17.6202583 C334.372795,17.8415498 335.752003,17.9537112 338.510419,18.1765184 C336.241009,20.0135408 335.107061,20.9335677 332.839165,22.7721058 C327.431338,23.1010117 324.727425,23.2662224 319.319598,23.5996753 C317.346922,24.8395139 316.361341,25.4594332 314.390179,26.6977561 C306.626647,27.0327247 302.744881,27.2024825 294.98135,27.5465453 C294.98135,27.5465453 300.784317,21.1700161 300.022801,21.1927516 C299.258256,21.215487 314.947312,20.609209 314.947312,20.609209 C321.872116,17.8627695 325.336032,16.4910655 332.265378,13.7522045 C330.547046,13.0898457 329.688636,12.7579085 327.970304,12.0955498 C322.948534,14.0720161 320.43992,15.061765 315.421179,17.0412628 C310.244986,17.0139803 307.656133,17.0018547 302.47994,16.9791193 C301.986393,14.3827336 301.739619,13.0852987 301.244558,10.488913 C294.495372,10.6874691 291.119265,10.7875049 284.370079,10.9906081 C273.754267,14.4509399 268.450903,16.1848951 257.845688,19.6618996 C264.431368,19.4527336 267.724207,19.3496664 274.309887,19.1465632 C273.684625,20.2939444 273.371238,20.8668771 272.744463,22.0142583 C269.972422,23.0464466 268.585644,23.5632987 265.813603,24.5970027 C273.077532,24.4833256 276.71101,24.4272448 283.974939,24.3211462 C283.484419,25.8807964 283.240673,26.6613794 282.751668,28.2210296 C274.555146,28.2892359 270.456886,28.3256126 262.261878,28.402913 C263.153594,27.1918726 263.600209,26.5855946 264.49344,25.3745543 C260.000038,24.8607336 257.751824,24.6045812 253.258422,24.0953076 C251.509811,23.2662224 250.636262,22.8524377 248.889165,22.0248682 C236.606494,22.4826081 230.464402,22.7175408 218.183246,23.1965004 C211.753503,25.5488592 208.539389,26.7250386 202.112674,29.0834601 C199.693384,29.0425363 198.483738,29.0228323 196.064447,28.9834242 C194.394561,28.0967426 193.558861,27.6526439 191.888975,26.7644466 C185.357798,25.520061 182.090696,24.898626 175.556491,23.6603031 C160.12632,24.2256574 152.411234,24.5166709 136.984091,25.1168861 C122.777192,29.2213883 115.678284,31.2812179 101.486523,35.4160341 C94.5556636,36.2375408 91.0917477,36.6482942 84.162402,37.4758637 C79.4343385,38.9203211 77.0710637,39.6448233 72.3460281,41.0923121 C76.1944871,41.2954152 78.1172026,41.3969668 81.9641477,41.6015857 C80.4683658,42.6580251 79.7204749,43.185487 78.224693,44.2419265 C68.7170917,44.6451013 63.963291,44.8497202 54.4572037,45.2650206 C48.4029206,47.0141327 45.376536,47.8886888 39.3252809,49.642348 C40.6166796,51.8355587 41.2631359,52.9314063 42.5545346,55.1231013 C55.7501163,54.5986709 62.3479072,54.3440341 75.5450028,53.8438547 C78.9544166,52.6282673 80.6591234,52.0219892 84.071565,50.8079175 C95.1309643,50.3425991 100.661421,50.1137291 111.72082,49.6681148 C112.98951,51.5733435 113.625368,52.5252 114.892544,54.4319444 C110.503605,57.630061 108.311407,59.230635 103.925496,62.431783 C105.006455,64.1081417 105.546935,64.9463211 106.627895,66.6211641 C102.222303,67.8958637 100.019506,68.5339713 95.6154281,69.8117022 C90.8010695,74.0101776 88.3954041,76.1094152 83.5855873,80.3124377 C66.7201926,86.5995408 49.8638816,92.9139265 33.0181683,99.2555946 C24.0601305,105.944357 19.5848966,109.292527 10.6435123,115.993415 C14.8099006,117.219613 16.8915808,117.834985 21.0549413,119.064213 C13.2081423,125.066366 9.28701372,128.068958 1.45384028,134.078689 C0.964834671,138.95468 0.721088841,141.391917 0.235111131,146.266393 C4.84357266,146.399774 7.14628948,146.466465 11.754751,146.602877 C14.6115733,144.80981 16.0392274,143.914034 18.8975636,142.122483 C18.6719852,137.925523 18.5599529,135.826285 18.3343745,131.62781 C22.7747876,127.338393 24.9957512,125.1952 29.4422201,120.91033 C32.7941038,120.757245 34.4715596,120.68146 37.8234432,120.531406 C33.5858993,124.929953 31.4693982,127.129227 27.23791,131.530805 C28.2128934,137.229819 28.700385,140.079326 29.6738544,145.778339 C24.9896954,147.853326 22.6476159,148.891577 17.9664848,150.969595 C18.6144551,154.769442 18.9384402,156.670124 19.5864105,160.471487 C31.7767299,161.447595 37.8703756,161.941711 50.0561532,162.94207 C51.2763963,161.884115 51.8850039,161.355137 53.105247,160.298698 C58.3329138,160.416922 60.9459902,160.47755 66.173657,160.598805 C63.5091063,162.49494 62.1783449,163.443765 59.5153081,165.341415 C63.5696642,165.520267 65.5968423,165.611209 69.6511984,165.793092 C75.6343258,166.362994 78.6243756,166.64946 84.6059891,167.225424 C89.1009045,171.898312 91.3476052,174.235514 95.8364647,178.911433 C108.223597,178.799272 114.418678,178.749254 126.805811,178.659828 C123.476636,183.238743 121.812806,185.528958 118.488173,190.109388 C106.732357,193.193828 100.858234,194.741352 89.1130161,197.848527 C84.431885,202.015173 82.0913194,204.099254 77.4162441,208.268931 C73.4890598,210.868348 71.5254676,212.17033 67.5997972,214.772778 C74.1869904,221.243281 77.4768021,224.480805 84.0518837,230.958886 C82.7831942,233.320339 82.1488495,234.501065 80.88016,236.861003 C80.88016,236.861003 92.2317515,237.703729 93.769924,237.64007 C95.3050685,237.574895 114.801707,244.622877 114.801707,244.622877 C105.227492,255.178178 95.6669024,265.747119 86.1244802,276.331218 C89.8124606,276.590402 91.6564508,276.720752 95.3459451,276.981451 C87.3068746,282.948743 83.2918812,285.936178 75.2679501,291.912563 C79.2723459,295.056115 81.2737868,296.629406 85.2751547,299.775989 C78.8847749,305.631119 75.6918559,308.559442 69.3120738,314.420635 C73.8145588,320.007487 76.0642874,322.800913 80.5607167,328.389281 C83.2994509,331.955711 84.668061,333.738169 87.4052813,337.306115 C100.078551,336.849891 106.414428,336.628599 119.087697,336.196626 C121.39647,334.738527 122.550099,334.009478 124.860386,332.551379 C124.404687,329.947415 124.176081,328.645433 123.720382,326.041469 C125.310029,324.669765 126.104852,323.984671 127.694499,322.612967 C130.637616,320.898716 132.110689,320.040832 135.05532,318.328097 C136.716122,316.632034 137.545767,315.784761 139.206569,314.090213 C133.111409,314.272097 130.063829,314.36607 123.970184,314.554016 C121.997508,313.291442 121.010413,312.660913 119.037737,311.398339 C125.496245,309.449155 128.725498,308.476079 135.187034,306.532958 C136.915964,305.190052 137.778915,304.520115 139.507845,303.177209 C134.366473,302.821021 131.794273,302.643684 126.652902,302.290527 C127.977607,301.05372 128.640717,300.435317 129.965423,299.198509 C138.258837,298.443693 142.405544,298.070832 150.698958,297.326626 C164.332071,294.76207 171.152412,293.48737 184.794609,290.950097 C190.776222,288.126357 193.767786,286.716761 199.752428,283.897568 C213.485461,278.662357 227.224551,273.44685 240.972724,268.252563 C241.408741,263.788841 241.628264,261.557738 242.064281,257.095532 C247.420634,254.55068 250.09881,253.279012 255.45819,250.738707 C266.308665,250.509837 271.733145,250.400707 282.583619,250.190025 C286.954391,247.922545 289.140533,246.788805 293.514333,244.524357 C293.54007,244.474339 293.553695,244.448572 293.579433,244.398554 C297.930523,244.274267 300.104554,244.213639 304.455644,244.090868 C312.208578,235.287711 316.08883,230.889164 323.86296,222.093586 C334.003392,217.928456 339.076636,215.848922 349.229179,211.698949 C352.052695,209.137424 353.465209,207.856662 356.291753,205.295137 C349.893803,204.573666 346.694828,204.215962 340.295365,203.500554 C337.664121,200.549496 336.346985,199.074725 333.714227,196.125182 C327.73867,196.179747 324.750134,196.208545 318.774576,196.269173 C318.748839,196.319191 318.735213,196.344958 318.709476,196.394976 C309.316935,196.667801 304.622178,196.807245 295.231151,197.092196 C284.444263,195.52042 279.050062,194.738321 268.257117,193.183218 C270.388758,189.565254 271.456092,187.75703 273.590761,184.139065 C271.87697,181.283496 271.020075,179.855711 269.30477,177.000142 C258.684416,177.277514 253.374996,177.419989 242.754642,177.71555 C240.073438,173.71563 238.732079,171.714913 236.047847,167.716509 C231.66345,166.740402 229.469737,166.252348 225.082313,165.279272 C223.713702,166.566097 223.030911,167.210267 221.662301,168.498608 C211.638443,169.089729 206.625757,169.388321 196.601899,169.994599 C195.031934,167.907487 194.247708,166.863173 192.676229,164.776061 C183.435083,164.218285 178.814509,163.942429 169.570335,163.398294 C156.975791,168.039352 150.682304,170.36746 138.104414,175.03277 C125.823258,174.55381 119.682679,174.318877 107.400009,173.861137 C113.405846,167.204204 116.412549,163.877254 122.430497,157.224868 C113.838835,156.856554 109.542247,156.676187 100.949071,156.318483 C108.202402,152.877855 111.831339,151.160572 119.090725,147.727523 C120.056625,145.882922 120.539575,144.961379 121.505474,143.116778 C105.166934,147.41529 97.0037196,149.575155 80.6848606,153.911559 C73.4890598,153.799397 69.8919163,153.746348 62.6961155,153.641765 C63.2502209,150.931702 63.5272737,149.576671 64.0813791,146.868124 C69.1092046,143.886752 71.6253882,142.396823 76.6577555,139.418483 C84.9723648,135.577711 89.1326974,133.660357 97.4579044,129.82868 C109.35149,127.130743 115.30131,125.787837 127.203979,123.109604 C142.096698,122.51242 156.989417,121.937971 171.885164,121.383227 C169.078302,124.058429 167.676385,125.396787 164.872551,128.073505 C169.918544,129.287577 172.440783,129.896886 177.483748,131.115505 C181.521451,126.583577 183.542573,124.319128 187.586331,119.790231 C194.43241,117.349962 197.858477,116.131343 204.709097,113.697137 C216.738938,110.388375 222.756886,108.739299 234.795811,105.451756 C237.39072,103.329783 238.688174,102.270312 241.284597,100.149855 C254.463526,95.1601865 261.058289,92.6729309 274.255384,87.7090296 C285.83104,84.7685812 291.621896,83.302904 303.206636,80.3821596 C302.693407,80.0578009 302.43755,79.8971372 301.924321,79.5727785 C310.659808,76.3458637 315.029066,74.7346798 323.770609,71.5168592 C325.74934,71.7730117 326.737949,71.90033 328.716681,72.1564825 C329.190547,72.8082314 329.426723,73.1356215 329.900589,73.7873704 C333.325142,72.3611013 335.035905,71.6487247 338.461972,70.225487 C339.138708,70.0708861 339.476318,69.9951013 340.154567,69.8420161 C337.765556,69.7253076 336.572564,69.6677112 334.185066,69.5525184 C331.989839,69.1735946 330.89374,68.9841327 328.698513,68.6067247 C329.790071,67.2850386 330.335093,66.6241955 331.42665,65.3009937 C333.266098,64.6704646 334.185066,64.3552 336.024514,63.7246709 C338.988827,63.644339 340.472497,63.6034152 343.436809,63.5245991 C344.538965,63.8110655 345.088528,63.9535408 346.190683,64.2400072 C346.367815,65.4752987 346.455624,66.0937022 346.632756,67.3305094 C348.172443,67.1759085 348.943043,67.0986081 350.484243,66.9440072 C350.570538,66.8348771 350.614443,66.7803121 350.700738,66.6711821 C351.05803,66.7348413 351.236676,66.7651552 351.593968,66.8288143 C356.051035,66.3741058 358.279568,66.1482673 362.736635,65.6965901 C364.156719,64.588617 364.868275,64.0338726 366.28836,62.9258996 C368.416972,63.1881148 369.481278,63.3184646 371.608377,63.5806798 C370.733315,64.7568592 370.294269,65.3464646 369.419207,66.5241596 C366.586608,67.3911372 365.171065,67.824626 362.338466,68.6931193 L362.350577,68.6931193 C361.699579,69.9829758 361.372566,70.6286619 360.721568,71.9200341 C367.52677,72.9613166 370.928614,73.4842314 377.730788,74.5330924 C377.730788,74.5330924 377.72776,74.5740161 377.703537,74.6437381 C379.535415,74.5194511 380.451355,74.4573076 382.283233,74.3345363 C383.630648,72.5869399 384.304356,71.7123839 385.653284,69.9663031 C380.646654,68.6628054 378.141068,68.0125722 373.13141,66.7136215 C373.414519,65.8769578 373.555316,65.458626 373.83691,64.6204466 C379.459718,63.5958368 382.272636,63.0850475 387.896957,62.0634691 C389.915052,59.5307426 390.923342,58.2636215 392.94295,55.7293794 C389.083893,54.1636664 387.153608,53.3815677 383.293038,51.8188861 C386.136234,47.5431103 387.557833,45.4059803 390.405571,41.1317202 C382.165145,43.1672987 378.047203,44.1873614 369.811319,46.2335498 C367.308761,46.297209 366.056725,46.3290386 363.552653,46.3926978 C366.787963,43.1081865 368.406375,41.4666888 371.644712,38.1836933 C363.526916,37.1878816 359.468018,36.6922493 351.347194,35.7070475 C346.189169,37.4258457 343.610914,38.2852448 338.454402,40.0085901 C334.180524,44.9724915 332.044341,47.4552 327.776518,52.4221327 C319.66175,53.842339 315.604366,54.5547157 307.49414,55.9840161 C301.70934,59.3094511 298.819211,60.9736843 293.040467,64.3036664 C289.67193,64.6628861 287.986904,64.8432538 284.619881,65.2055049 C288.462284,61.0525004 290.385,58.9759982 294.233459,54.8245094 C288.104992,54.5168233 285.039245,54.3637381 278.909264,54.0621148 C276.779138,52.97233 275.713317,52.4266798 273.583191,51.3368951 C274.929092,48.6783659 275.602799,47.3491013 276.950214,44.6920879 C292.030663,40.5072538 299.574672,38.4231731 314.673288,34.2716843 C321.072751,33.1424915 324.27324,32.5801686 330.674217,31.4570386 C329.310149,33.5805274 328.627358,34.6415139 327.264804,36.7650027 C330.450153,36.5861507 332.041313,36.4967247 335.226663,36.3193883 C336.403001,35.2386978 336.991927,34.6991103 338.16978,33.6184197 C341.621584,33.2652628 343.345973,33.0894422 346.797777,32.7378009 C347.173236,32.3619085 347.36248,32.175478 347.737939,31.7995857 C346.643354,31.5070565 346.096818,31.3600341 345.002233,31.0675049 C345.674426,29.9383121 346.009009,29.3744735 346.681203,28.2452807 C350.753726,27.9512359 352.789988,27.8042135 356.864025,27.5132 C360.411209,26.0232717 362.185557,25.2790655 365.73274,23.7921686 C365.946207,23.6845543 366.053697,23.6315049 366.267164,23.5238906 C366.291387,23.5284377 366.303499,23.5299534 366.327722,23.5345004 C367.401112,23.0858547 367.93705,22.8600161 369.01044,22.4113704 C377.596046,21.6019892 381.889607,21.20033 390.478241,20.4015587 C392.693148,22.1067157 393.799845,22.960052 396.013239,24.6667247 C384.128738,27.8390744 378.189515,29.4305543 366.314097,32.6241238 C377.362898,33.9655139 382.884271,34.6415139 393.927017,36.0026081 C397.253164,33.6184197 398.916994,32.4270834 402.246168,30.0459265 C407.03479,29.933765 409.428344,29.8792 414.218479,29.77007 C414.126128,29.8973883 414.08071,29.9610475 413.989873,30.0868502 C414.930035,30.0656305 415.399359,30.0550206 416.338008,30.0338009 C419.353795,27.8284646 420.861688,26.7250386 423.878989,24.5212179 C421.736751,24.2241417 420.666389,24.0771193 418.524151,23.7815587" id="Fill-39" fill="#DEDCDC"></path>
                <g id="Group-97" transform="translate(127.469223, 57.581256)">
                    <path d="M816.053166,160.662768 L845.767448,161.347862 C846.627371,161.370597 846.964982,160.784023 846.516853,160.048911 L844.736449,155.218391 C844.28832,154.483279 843.219472,153.864875 842.361062,153.845171 L820.711588,153.344992 C819.851665,153.325288 818.805526,153.922472 818.387676,154.674257 L815.250773,159.26075 C814.831409,160.012535 815.191729,160.643064 816.053166,160.662768" id="Fill-41" fill="#384240"></path>
                    <path d="M827.983995,152.814499 L830.083842,148.469001 C830.415397,147.674777 829.358661,147.852113 828.500251,147.832409 L827.89013,147.817252 C827.030207,147.797548 826.612357,147.555037 826.192993,148.30379 L823.87665,152.71901 L827.983995,152.814499 Z" id="Fill-43" fill="#384240"></path>
                    <path id="Fill-45" fill="#384240"></path>
                    <path d="M838.822206,166.018173 C838.196945,166.004532 837.703397,165.484648 837.718537,164.858666 C837.733676,164.232684 838.248419,163.735536 838.876708,163.750693 C839.500455,163.764335 839.994003,164.287249 839.980377,164.9102 C839.965238,165.537698 839.447467,166.03333 838.822206,166.018173 L838.822206,166.018173 Z M834.165298,165.910559 C833.540037,165.895402 833.044976,165.375518 833.060115,164.749536 C833.072227,164.12507 833.593025,163.629438 834.218286,163.643079 C834.845061,163.65672 835.337095,164.176604 835.323469,164.802586 C835.309844,165.427052 834.792073,165.925716 834.165298,165.910559 L834.165298,165.910559 Z M829.509904,165.802944 C828.883129,165.787787 828.388068,165.26942 828.401693,164.641922 C828.416833,164.017456 828.934603,163.520308 829.559864,163.53698 C830.185125,163.550622 830.683215,164.068989 830.666561,164.694971 C830.652936,165.320953 830.133651,165.816586 829.509904,165.802944 L829.509904,165.802944 Z M824.577457,165.689267 C823.950682,165.67411 823.457135,165.154227 823.469247,164.529761 C823.484386,163.903778 824.002157,163.408146 824.628932,163.421787 C825.252679,163.436944 825.74774,163.955312 825.734115,164.581294 C825.720489,165.207276 825.201205,165.702909 824.577457,165.689267 L824.577457,165.689267 Z M819.919036,165.581653 C819.293775,165.568012 818.797199,165.046613 818.812339,164.42063 C818.827478,163.796164 819.345249,163.2975 819.97051,163.314173 C820.595771,163.32933 821.089318,163.849213 821.075693,164.472164 C821.062067,165.099662 820.544297,165.595294 819.919036,165.581653 L819.919036,165.581653 Z M815.2591,165.472523 C814.636867,165.458882 814.141805,164.938998 814.156945,164.313016 C814.172084,163.68855 814.688341,163.192917 815.315116,163.206559 C815.940377,163.2202 816.433924,163.740083 816.420299,164.366065 C816.405159,164.990532 815.885875,165.489196 815.2591,165.472523 L815.2591,165.472523 Z M813.27734,167.092801 C813.237978,168.053752 812.471919,168.820693 811.527215,168.879805 L811.525701,168.963169 C811.522673,169.055626 811.445462,169.128379 811.353111,169.128379 C811.26076,169.128379 811.189604,169.051079 811.18809,168.958622 L811.192632,168.872227 C810.261553,168.764613 809.543941,167.970388 809.5394,167.021563 L809.254777,167.013985 L809.710476,166.315249 L810.140437,167.032173 L809.875496,167.029142 C809.883066,167.794568 810.452311,168.43116 811.200202,168.534227 L811.26076,165.222433 L810.826256,165.214855 C810.735419,165.213339 810.661236,165.137554 810.664264,165.045097 C810.665778,164.954155 810.742989,164.87837 810.833826,164.881402 L811.266816,164.890496 L811.277413,164.252388 C811.095739,164.181151 810.968568,163.999267 810.971596,163.791617 C810.976137,163.52637 811.197174,163.312657 811.463629,163.31872 C811.733112,163.323267 811.943551,163.546074 811.939009,163.812837 C811.937495,164.020487 811.80124,164.196308 811.615024,164.259967 L811.604426,164.895043 L812.034388,164.904137 C812.129767,164.905653 812.200922,164.979922 812.199408,165.072379 C812.194867,165.166352 812.122197,165.240622 812.028332,165.23759 L811.596857,165.230012 L811.534785,168.541805 C812.294787,168.481178 812.903395,167.861258 812.944271,167.088254 L812.646023,167.080675 L813.101722,166.380424 L813.533198,167.098864 L813.27734,167.092801 Z M853.634685,162.391115 C853.524167,162.40324 853.421219,162.385052 853.328868,162.382021 C851.889102,162.350191 851.58177,162.341097 850.142005,162.309267 C849.230607,162.289563 848.623513,162.275922 848.036101,162.262281 C848.033073,162.260765 848.033073,162.260765 848.031559,162.260765 C846.59028,162.225904 846.282948,162.218326 844.843182,162.186496 C841.371697,162.109196 837.900211,162.021285 834.430239,161.943985 C830.174528,161.851527 825.92033,161.745429 821.664619,161.64994 C817.878232,161.56203 814.091845,161.484729 810.305458,161.383178 C807.934613,161.32255 805.568311,161.261922 803.19898,161.220998 C802.588858,161.208873 800.760008,161.161886 799.838013,161.142182 C801.400408,163.288406 802.382961,164.744989 803.120255,165.971187 C804.008943,167.439895 804.902173,168.901025 805.793889,170.362155 C805.989189,170.683483 806.161779,171.065438 806.397955,171.357967 C806.494848,171.477707 806.590226,171.618666 806.665924,171.802065 L806.930865,172.232523 C807.271504,172.702388 807.986088,173.408702 809.259319,173.4375 C811.165381,173.481456 811.910244,171.933931 811.910244,171.933931 C812.408333,170.907805 813.28491,171.503474 813.852641,172.490191 C813.852641,172.490191 814.467304,173.55724 816.162927,173.598164 C818.072018,173.642119 818.816881,172.093079 818.816881,172.093079 C819.313456,171.068469 820.105251,171.086657 820.551866,172.134003 C820.551866,172.134003 821.225574,173.713357 823.134664,173.758828 C825.043754,173.801267 825.793159,172.253743 825.793159,172.253743 C826.286706,171.230648 827.078502,171.248837 827.525117,172.293151 C827.525117,172.293151 828.198824,173.875536 830.109428,173.919491 C832.017004,173.964962 832.761867,172.414406 832.761867,172.414406 C833.259956,171.391312 834.048724,171.4095 834.495339,172.45533 C834.495339,172.45533 835.17056,174.0362 837.082678,174.080155 C838.990254,174.125626 839.735117,172.576586 839.735117,172.576586 C840.233207,171.551976 841.023488,171.570164 841.470103,172.615994 C841.470103,172.615994 842.145325,174.196864 844.054415,174.240819 C844.584297,174.25446 845.036968,174.048326 845.438164,173.711841 L845.43665,173.783079 C846.125497,173.340496 846.420717,172.731187 846.420717,172.731187 C846.917293,171.708092 847.709088,171.724765 848.157217,172.77211 C848.157217,172.77211 848.830925,174.351465 850.738501,174.396935 C853.946559,174.471204 855.484731,167.46263 856.246248,164.704065 C856.585373,163.473321 856.698919,162.880684 856.561149,162.45629 L853.634685,162.391115 Z" id="Fill-47" fill="#384240"></path>
                    <path d="M185.451971,230.419299 L215.166253,231.104393 C216.026176,231.127128 216.365301,230.540554 215.915658,229.805442 L214.135253,224.974922 C213.687124,224.23981 212.618276,223.621406 211.759867,223.601702 L190.110393,223.101523 C189.25047,223.081819 188.204331,223.679003 187.786481,224.430787 L184.649578,229.017281 C184.230214,229.769065 184.590534,230.399595 185.451971,230.419299" id="Fill-49" fill="#384240"></path>
                    <path d="M197.382799,222.57103 L199.482647,218.225532 C199.814202,217.431308 198.757465,217.608644 197.899056,217.58894 L197.288935,217.573783 C196.429011,217.554079 196.011161,217.311568 195.591797,218.060321 L193.275455,222.475541 L197.382799,222.57103 Z" id="Fill-51" fill="#384240"></path>
                    <path id="Fill-53" fill="#384240"></path>
                    <path d="M208.221011,235.774704 C207.59575,235.761063 207.102202,235.239664 207.117342,234.615197 C207.132481,233.989215 207.647224,233.492067 208.275513,233.507224 C208.89926,233.520865 209.392807,234.042265 209.379182,234.666731 C209.364042,235.294229 208.846272,235.789861 208.221011,235.774704 L208.221011,235.774704 Z M203.564103,235.66709 C202.938842,235.651933 202.44378,235.132049 202.45892,234.506067 C202.471031,233.881601 202.99183,233.385969 203.617091,233.39961 C204.243866,233.413251 204.7359,233.933135 204.722274,234.559117 C204.708648,235.183583 204.190878,235.682247 203.564103,235.66709 L203.564103,235.66709 Z M198.908709,235.559475 C198.281934,235.544318 197.786872,235.025951 197.800498,234.398453 C197.815637,233.773987 198.334922,233.276839 198.958669,233.293511 C199.58393,233.307152 200.08202,233.82552 200.065366,234.451502 C200.051741,235.077484 199.532456,235.573117 198.908709,235.559475 L198.908709,235.559475 Z M193.976262,235.445798 C193.349487,235.430641 192.85594,234.910758 192.868051,234.286291 C192.883191,233.660309 193.400961,233.164677 194.027736,233.178318 C194.651484,233.193475 195.146545,233.711843 195.132919,234.337825 C195.119294,234.963807 194.600009,235.459439 193.976262,235.445798 L193.976262,235.445798 Z M189.31784,235.338184 C188.692579,235.324543 188.196004,234.803143 188.211143,234.177161 C188.226283,233.552695 188.744054,233.054031 189.369315,233.070704 C189.994576,233.085861 190.488123,233.605744 190.474498,234.228695 C190.460872,234.856193 189.943101,235.351825 189.31784,235.338184 L189.31784,235.338184 Z M184.657905,235.229054 C184.035671,235.215413 183.54061,234.695529 183.555749,234.069547 C183.569375,233.445081 184.087146,232.949448 184.713921,232.96309 C185.339182,232.976731 185.832729,233.496614 185.819104,234.122596 C185.803964,234.747063 185.28468,235.244211 184.657905,235.229054 L184.657905,235.229054 Z M182.676145,236.849332 C182.636782,237.810283 181.870724,238.577224 180.92602,238.636336 L180.924506,238.7197 C180.921478,238.812157 180.844266,238.88491 180.751915,238.883395 C180.659565,238.883395 180.588409,238.80761 180.586895,238.715152 L180.591437,238.628758 C179.660358,238.521143 178.942746,237.726919 178.938204,236.778094 L178.653582,236.770516 L179.10928,236.07178 L179.539242,236.788704 L179.274301,236.785673 C179.281871,237.551099 179.851116,238.187691 180.599007,238.290758 L180.659565,234.978964 L180.225061,234.971386 C180.134224,234.96987 180.060041,234.894085 180.063069,234.801628 C180.064582,234.710686 180.141794,234.634901 180.232631,234.637933 L180.66562,234.647027 L180.676218,234.008919 C180.494544,233.937682 180.367372,233.755798 180.3704,233.548148 C180.374942,233.282901 180.595979,233.069188 180.862434,233.075251 C181.131917,233.079798 181.342356,233.302605 181.337814,233.569368 C181.3363,233.777018 181.200044,233.952839 181.013829,234.016498 L181.003231,234.651574 L181.433193,234.660668 C181.528571,234.662184 181.599727,234.736453 181.598213,234.82891 C181.593671,234.922883 181.521002,234.997152 181.427137,234.994121 L180.995661,234.986543 L180.933589,238.298336 C181.693592,238.237709 182.302199,237.617789 182.343076,236.844785 L182.044828,236.837206 L182.500527,236.136955 L182.932002,236.855395 L182.676145,236.849332 Z M223.03349,232.147646 C222.922972,232.159771 222.820023,232.141583 222.727672,232.138552 C221.287907,232.106722 220.980575,232.097628 219.540809,232.065798 C218.629412,232.046094 218.022318,232.032453 217.434906,232.018812 C217.431878,232.017296 217.431878,232.017296 217.430364,232.017296 C215.989084,231.982435 215.681753,231.974857 214.241987,231.943027 C210.770501,231.865726 207.299016,231.777816 203.829044,231.700516 C199.573333,231.608058 195.319135,231.50196 191.063424,231.406471 C187.277037,231.318561 183.49065,231.24126 179.704263,231.139709 C177.333418,231.079081 174.967115,231.018453 172.597785,230.977529 C171.987663,230.965404 170.158813,230.918417 169.236817,230.898713 C170.799213,233.044937 171.781766,234.50152 172.519059,235.727717 C173.407748,237.196426 174.300978,238.657556 175.192694,240.118686 C175.387993,240.440013 175.560583,240.821969 175.79676,241.114498 C175.893652,241.234238 175.989031,241.375197 176.064729,241.558596 L176.32967,241.989054 C176.670308,242.458919 177.384892,243.165233 178.658124,243.194031 C180.564186,243.237987 181.309049,241.690462 181.309049,241.690462 C181.807138,240.664336 182.683715,241.260004 183.251446,242.246722 C183.251446,242.246722 183.866109,243.313771 185.561732,243.354695 C187.470822,243.39865 188.215685,241.84961 188.215685,241.84961 C188.712261,240.825 189.504056,240.843188 189.950671,241.890534 C189.950671,241.890534 190.624379,243.469888 192.533469,243.515359 C194.442559,243.557798 195.191963,242.010274 195.191963,242.010274 C195.685511,240.987179 196.477306,241.005368 196.923921,242.049682 C196.923921,242.049682 197.597629,243.632067 199.508233,243.676022 C201.415809,243.721493 202.160672,242.170937 202.160672,242.170937 C202.658761,241.147843 203.447529,241.166031 203.894144,242.211861 C203.894144,242.211861 204.569365,243.792731 206.481483,243.836686 C208.389059,243.882157 209.133922,242.333117 209.133922,242.333117 C209.632011,241.308507 210.422293,241.326695 210.868908,242.372525 C210.868908,242.372525 211.544129,243.953395 213.453219,243.99735 C213.983102,244.010991 214.435772,243.804857 214.836969,243.468372 L214.835455,243.53961 C215.524302,243.097027 215.819522,242.487717 215.819522,242.487717 C216.316097,241.464623 217.107893,241.481296 217.556022,242.528641 C217.556022,242.528641 218.229729,244.107996 220.137305,244.153466 C223.345364,244.22622 224.883536,237.219161 225.645053,234.460596 C225.984177,233.229852 226.097724,232.637215 225.959954,232.212821 L223.03349,232.147646 Z" id="Fill-55" fill="#384240"></path>
                    <path d="M233.485493,48.1931919 L257.237843,48.7418735 C257.925176,48.7585462 258.196173,48.2901964 257.837367,47.7021067 L256.414255,43.8416314 C256.055449,43.2535417 255.201581,42.7594251 254.515762,42.7427525 L237.209808,42.342609 C236.520961,42.327452 235.685261,42.8064117 235.350679,43.4066269 L232.845093,47.0715776 C232.508996,47.6733085 232.796646,48.1765193 233.485493,48.1931919" id="Fill-57" fill="#384240"></path>
                    <path d="M243.022465,41.91973 L244.699921,38.445757 C244.966376,37.8106807 244.121592,37.9531561 243.434259,37.9364834 L242.946768,37.9258735 C242.260949,37.9092009 241.926366,37.7151919 241.590269,38.3138915 L239.738709,41.8424296 L243.022465,41.91973 Z" id="Fill-59" fill="#384240"></path>
                    <path id="Fill-61" fill="#384240"></path>
                    <path d="M251.686191,52.4741211 C251.186588,52.4635112 250.791447,52.0466951 250.803559,51.5465157 C250.81567,51.0463363 251.227464,50.6492242 251.730096,50.6628655 C252.228185,50.6734753 252.623326,51.0902915 252.611214,51.5874395 C252.600616,52.0891345 252.185794,52.4862466 251.686191,52.4741211 L251.686191,52.4741211 Z M247.964904,52.3892422 C247.463787,52.3756009 247.067132,51.9603004 247.079243,51.4601211 C247.089841,50.9614574 247.506177,50.5643453 248.00578,50.5749552 C248.506898,50.5870807 248.900524,51.0023812 248.889927,51.5025605 C248.877815,52.0027399 248.464507,52.399852 247.964904,52.3892422 L247.964904,52.3892422 Z M244.242103,52.3013318 C243.742499,52.2892063 243.345845,51.8754215 243.356442,51.3737265 C243.368554,50.8750628 243.783376,50.4779507 244.282979,50.4900762 C244.781068,50.5006861 245.180751,50.9159865 245.167126,51.4161659 C245.155014,51.917861 244.740192,52.3134574 244.242103,52.3013318 L244.242103,52.3013318 Z M240.299779,52.2103901 C239.798661,52.1997803 239.403521,51.7844798 239.414118,51.2843004 C239.42623,50.7841211 239.839538,50.387009 240.340655,50.3991345 C240.838745,50.4112601 241.235399,50.8250448 241.224802,51.3252242 C241.21269,51.8254036 240.797868,52.221 240.299779,52.2103901 L240.299779,52.2103901 Z M236.575464,52.1239955 C236.07586,52.1133857 235.679206,51.6980852 235.691317,51.1979058 C235.703429,50.6977265 236.116737,50.2990987 236.617854,50.3127399 C237.117457,50.3248655 237.511084,50.7401659 237.500486,51.2388296 C237.489889,51.739009 237.075067,52.1361211 236.575464,52.1239955 L236.575464,52.1239955 Z M232.851148,52.0376009 C232.353059,52.026991 231.957918,51.6116906 231.97003,51.1115112 C231.980628,50.6113318 232.393936,50.2157354 232.895053,50.2263453 C233.394656,50.2384709 233.789797,50.6537713 233.779199,51.1539507 C233.767088,51.6526143 233.352266,52.0512422 232.851148,52.0376009 L232.851148,52.0376009 Z M231.266043,53.3335202 C231.235764,54.1019776 230.622615,54.7143184 229.867154,54.7613049 L229.867154,54.8279955 C229.864126,54.9022646 229.802055,54.959861 229.729385,54.959861 C229.655201,54.959861 229.597671,54.8992332 229.597671,54.8234484 L229.599185,54.7552422 C228.855836,54.6688475 228.282049,54.0337713 228.279022,53.2759238 L228.051929,53.269861 L228.415277,52.7105695 L228.758944,53.2850179 L228.546991,53.2819865 C228.553046,53.8943274 229.008745,54.4020852 229.605241,54.4854484 L229.655201,51.8375291 L229.306993,51.8329821 C229.234324,51.8314664 229.17528,51.7708386 229.178307,51.6965695 C229.179821,51.6238161 229.240379,51.5631883 229.314563,51.564704 L229.659743,51.5722825 L229.667313,51.063009 C229.523488,51.0054126 229.422053,50.8614215 229.423567,50.6946951 C229.428109,50.4824978 229.603727,50.3112242 229.817194,50.3157713 C230.032175,50.3203184 230.200223,50.4976547 230.197195,50.7113677 C230.195681,50.8765785 230.086677,51.0175381 229.93831,51.0690717 L229.929226,51.5768296 L230.272893,51.5844081 C230.34859,51.5844081 230.40612,51.6450359 230.404606,51.7177892 C230.401578,51.793574 230.342534,51.8526861 230.268351,51.8496547 L229.92317,51.8435919 L229.87321,54.4915112 C230.481818,54.443009 230.967795,53.9473767 231.001102,53.3289731 L230.761898,53.3229103 L231.12676,52.7636188 L231.470427,53.3380673 L231.266043,53.3335202 Z M263.526788,49.5745964 C263.438979,49.5852063 263.355712,49.5700493 263.283042,49.5685336 C262.130927,49.5412511 261.885667,49.5351883 260.733552,49.5094215 C260.005342,49.4942646 259.520878,49.482139 259.051554,49.4715291 C259.048526,49.4715291 259.048526,49.4700135 259.047012,49.4700135 C257.894897,49.4427309 257.649637,49.4366682 256.499036,49.4109013 C253.723967,49.3502735 250.948898,49.2790359 248.175343,49.2184081 C244.773499,49.144139 241.373169,49.0592601 237.971325,48.9834753 C234.94494,48.9122377 231.917042,48.8500942 228.890657,48.7682466 C226.995193,48.7197444 225.10427,48.6727578 223.210319,48.6394126 C222.722828,48.6303184 221.260353,48.592426 220.52306,48.5757534 C221.772068,50.2915202 222.559321,51.4570897 223.148248,52.4377444 C223.85829,53.6108924 224.572874,54.7779776 225.28443,55.9465785 C225.440367,56.2027309 225.578136,56.5089013 225.76738,56.7423184 C225.844591,56.8378072 225.921803,56.9514843 225.982361,57.0985067 L226.1928,57.4410538 C226.46531,57.8169462 227.037583,58.3807848 228.054957,58.4050359 C229.579504,58.4398969 230.174486,57.2030897 230.174486,57.2030897 C230.571141,56.3830987 231.273613,56.8590269 231.726284,57.6471883 C231.726284,57.6471883 232.216804,58.5005247 233.573302,58.5323543 C235.099363,58.5687309 235.695859,57.3304081 235.695859,57.3304081 C236.091,56.510417 236.723831,56.525574 237.081123,57.3622377 C237.081123,57.3622377 237.620088,58.6263274 239.146149,58.6611883 C240.67221,58.6960493 241.271734,57.4577265 241.271734,57.4577265 C241.665361,56.6407668 242.298192,56.6544081 242.655484,57.4895561 C242.655484,57.4895561 243.19445,58.7551614 244.72051,58.7900224 C246.246571,58.8263991 246.843067,57.5865605 246.843067,57.5865605 C247.239722,56.7696009 247.871039,56.7847578 248.228331,57.6199058 C248.228331,57.6199058 248.767297,58.8839955 250.294872,58.9188565 C251.820932,58.9552332 252.415915,57.7169103 252.415915,57.7169103 C252.814083,56.898435 253.4454,56.9120762 253.802692,57.7487399 C253.802692,57.7487399 254.341658,59.0128296 255.867719,59.0476906 C256.293139,59.0583004 256.654972,58.8930897 256.974416,58.623296 L256.972902,58.6808924 C257.523979,58.3277354 257.760155,57.8411973 257.760155,57.8411973 C258.15681,57.0212063 258.791155,57.0363632 259.148447,57.8730269 C259.148447,57.8730269 259.685899,59.1356009 261.21196,59.1719776 C263.77659,59.2310897 265.005917,53.6290807 265.614524,51.4237444 C265.885521,50.4400583 265.976358,49.9656457 265.86584,49.6276457 L263.526788,49.5745964 Z" id="Fill-63" fill="#384240"></path>
                    <path d="M1044.70053,57.9295623 L1068.45288,58.4782439 C1069.14021,58.4949166 1069.41121,58.0265668 1069.05241,57.4384771 L1067.62929,53.5780018 C1067.27049,52.9899121 1066.41662,52.4957955 1065.7308,52.4791229 L1048.42485,52.0789794 C1047.736,52.0638224 1046.9003,52.5427821 1046.56572,53.1429973 L1044.06013,56.807948 C1043.72403,57.4096789 1044.01168,57.9128897 1044.70053,57.9295623" id="Fill-65" fill="#384240"></path>
                    <path d="M1054.2375,51.6559489 L1055.91496,48.1819758 C1056.18141,47.5468996 1055.33663,47.6893749 1054.6493,47.6727022 L1054.16181,47.6620924 C1053.47599,47.6454197 1053.1414,47.4514108 1052.80531,48.0501103 L1050.95375,51.5786484 L1054.2375,51.6559489 Z" id="Fill-67" fill="#384240"></path>
                    <path id="Fill-69" fill="#384240"></path>
                    <path d="M1062.90108,62.2104915 C1062.40147,62.1998816 1062.00633,61.7830655 1062.01845,61.2828861 C1062.03056,60.7827067 1062.44235,60.3855946 1062.94498,60.3992359 C1063.44307,60.4098457 1063.83821,60.8266619 1063.8261,61.3238099 C1063.8155,61.8255049 1063.40068,62.222617 1062.90108,62.2104915 L1062.90108,62.2104915 Z M1059.17979,62.1256126 C1058.67867,62.1119713 1058.28202,61.6966709 1058.29413,61.1964915 C1058.30473,60.6978278 1058.72106,60.3007157 1059.22067,60.3113256 C1059.72178,60.3234511 1060.11541,60.7387516 1060.10481,61.2389309 C1060.0927,61.7391103 1059.67939,62.1362224 1059.17979,62.1256126 L1059.17979,62.1256126 Z M1055.45699,62.0377022 C1054.95739,62.0255767 1054.56073,61.6117919 1054.57133,61.1100969 C1054.58344,60.6114332 1054.99826,60.2143211 1055.49787,60.2264466 C1055.99747,60.2370565 1056.39564,60.652357 1056.38201,61.1525363 C1056.3699,61.6542314 1055.95508,62.0498278 1055.45699,62.0377022 L1055.45699,62.0377022 Z M1051.51467,61.9467605 C1051.01355,61.9361507 1050.61841,61.5208502 1050.62901,61.0206709 C1050.64112,60.5204915 1051.05443,60.1233794 1051.55554,60.1355049 C1052.05363,60.1476305 1052.45029,60.5614152 1052.43969,61.0615946 C1052.42758,61.561774 1052.01276,61.9573704 1051.51467,61.9467605 L1051.51467,61.9467605 Z M1047.79035,61.8603659 C1047.29075,61.8497561 1046.89409,61.4344556 1046.9062,60.9342762 C1046.91832,60.4340969 1047.33162,60.0354691 1047.83274,60.0491103 C1048.33234,60.0612359 1048.72597,60.4765363 1048.71537,60.9752 C1048.70478,61.4753794 1048.28995,61.8724915 1047.79035,61.8603659 L1047.79035,61.8603659 Z M1044.06604,61.7739713 C1043.56795,61.7633614 1043.17281,61.348061 1043.18492,60.8478816 C1043.19551,60.3477022 1043.60882,59.9521058 1044.10994,59.9627157 C1044.60954,59.9748413 1045.0062,60.3901417 1044.99409,60.8903211 C1044.98197,61.3889848 1044.56715,61.7876126 1044.06604,61.7739713 L1044.06604,61.7739713 Z M1042.48093,63.0698906 C1042.45065,63.838348 1041.83902,64.4506888 1041.08356,64.4976753 L1041.08204,64.5643659 C1041.07901,64.638635 1041.01694,64.6962314 1040.94427,64.6962314 C1040.87009,64.6962314 1040.81256,64.6356036 1040.81256,64.5598188 L1040.81407,64.4916126 C1040.07072,64.4052179 1039.49694,63.7701417 1039.49391,63.0122942 L1039.26682,63.0062314 L1039.63016,62.4469399 L1039.97383,63.0213883 L1039.76188,63.018357 C1039.76793,63.6306978 1040.22363,64.1384556 1040.82013,64.2218188 L1040.87009,61.5738996 L1040.52188,61.5693525 C1040.44921,61.5678368 1040.39017,61.507209 1040.39319,61.4329399 C1040.39471,61.3601865 1040.45527,61.2995587 1040.52945,61.3010744 L1040.87463,61.3086529 L1040.8822,60.7993794 C1040.73838,60.741783 1040.63694,60.5977919 1040.63845,60.4310655 C1040.643,60.2188682 1040.81861,60.0475946 1041.03208,60.0521417 C1041.24706,60.0566888 1041.41511,60.2340251 1041.41208,60.4477381 C1041.41057,60.6129489 1041.30156,60.7539085 1041.1532,60.8054422 L1041.14411,61.3132 L1041.48778,61.3207785 C1041.56348,61.3207785 1041.62101,61.3814063 1041.61949,61.4541596 C1041.61647,61.5299444 1041.55742,61.5890565 1041.48324,61.5860251 L1041.13806,61.5799623 L1041.0881,64.2278816 C1041.6967,64.1793794 1042.18268,63.6837471 1042.21599,63.0653435 L1041.97679,63.0592807 L1042.34165,62.4999892 L1042.68531,63.0744377 L1042.48093,63.0698906 Z M1074.74168,59.3109668 C1074.65387,59.3215767 1074.5706,59.3064197 1074.49642,59.304904 C1073.34581,59.2776215 1073.10055,59.2715587 1071.94995,59.2457919 C1071.22023,59.230635 1070.73577,59.2185094 1070.26644,59.2078996 C1070.26341,59.2078996 1070.26341,59.2063839 1070.2619,59.2063839 C1069.10978,59.1791013 1068.86604,59.1730386 1067.71392,59.1472717 C1064.93885,59.0866439 1062.16378,59.0154063 1059.39023,58.9547785 C1055.98839,58.8805094 1052.58806,58.7956305 1049.18621,58.7198457 C1046.15983,58.6486081 1043.13193,58.5864646 1040.10554,58.504617 C1038.21008,58.4561148 1036.31916,58.4091283 1034.42521,58.375783 C1033.93771,58.3666888 1032.47524,58.3287964 1031.73795,58.3121238 C1032.98695,60.0278906 1033.77421,61.1934601 1034.36313,62.1741148 C1035.07318,63.3472628 1035.78776,64.514348 1036.49932,65.6829489 C1036.65525,65.9391013 1036.79302,66.2452717 1036.98227,66.4786888 C1037.05948,66.5741776 1037.13669,66.6878547 1037.19725,66.8348771 L1037.40769,67.1774242 C1037.6802,67.5533166 1038.25247,68.1171552 1039.26984,68.1414063 C1040.79439,68.1762673 1041.38937,66.9394601 1041.38937,66.9394601 C1041.78603,66.1194691 1042.4885,66.5953973 1042.94269,67.3835587 C1042.94269,67.3835587 1043.43169,68.2368951 1044.78819,68.2687247 C1046.31425,68.3051013 1046.91075,67.0667785 1046.91075,67.0667785 C1047.30589,66.2467874 1047.93872,66.2619444 1048.29601,67.0986081 C1048.29601,67.0986081 1048.83498,68.3626978 1050.36104,68.3975587 C1051.8871,68.4324197 1052.48662,67.1940969 1052.48662,67.1940969 C1052.88025,66.3771372 1053.51308,66.3907785 1053.87037,67.2259265 C1053.87037,67.2259265 1054.40934,68.4915318 1055.9354,68.5263928 C1057.46146,68.5627695 1058.05795,67.3229309 1058.05795,67.3229309 C1058.45461,66.5059713 1059.08593,66.5211283 1059.44322,67.3562762 C1059.44322,67.3562762 1059.98218,68.6203659 1061.51127,68.6552269 C1063.03582,68.6916036 1063.6308,67.4532807 1063.6308,67.4532807 C1064.02897,66.6348054 1064.66029,66.6484466 1065.01758,67.4851103 C1065.01758,67.4851103 1065.55655,68.7492 1067.08261,68.784061 C1067.50803,68.7946709 1067.86986,68.6294601 1068.1893,68.3596664 L1068.18779,68.4172628 C1068.73887,68.0641058 1068.97504,67.5775677 1068.97504,67.5775677 C1069.3717,66.7575767 1070.00604,66.7727336 1070.36333,67.6093973 C1070.36333,67.6093973 1070.90079,68.8719713 1072.42685,68.908348 C1074.99148,68.9674601 1076.2208,63.3654511 1076.82941,61.1601148 C1077.10041,60.1764287 1077.19125,59.7020161 1077.08073,59.3640161 L1074.74168,59.3109668 Z" id="Fill-71" fill="#384240"></path>
                    <path d="M1235.56033,243.033974 L1259.31268,243.582656 C1260.00001,243.599328 1260.27101,243.130978 1259.9122,242.542889 L1258.48909,238.682413 C1258.13028,238.094324 1257.27642,237.600207 1256.5906,237.583535 L1239.28464,237.183391 C1238.5958,237.168234 1237.7601,237.647194 1237.42551,238.247409 L1234.91993,241.91236 C1234.58383,242.514091 1234.87148,243.017301 1235.56033,243.033974" id="Fill-73" fill="#384240"></path>
                    <path d="M1245.09745,236.760512 L1246.77491,233.286539 C1247.04136,232.651463 1246.19658,232.793938 1245.50925,232.777265 L1245.02176,232.766656 C1244.33594,232.749983 1244.00135,232.555974 1243.66526,233.154674 L1241.8137,236.683212 L1245.09745,236.760512 Z" id="Fill-75" fill="#384240"></path>
                    <path id="Fill-77" fill="#384240"></path>
                    <path d="M1253.76103,247.314903 C1253.26142,247.304293 1252.86628,246.887477 1252.87839,246.387298 C1252.89051,245.887118 1253.3023,245.490006 1253.80493,245.503648 C1254.30302,245.514257 1254.69816,245.931074 1254.68605,246.428222 C1254.67545,246.929917 1254.26063,247.327029 1253.76103,247.314903 L1253.76103,247.314903 Z M1250.03974,247.230024 C1249.53862,247.216383 1249.14197,246.801083 1249.15408,246.300903 C1249.16468,245.802239 1249.58101,245.405127 1250.08062,245.415737 C1250.58173,245.427863 1250.97536,245.843163 1250.96476,246.343343 C1250.95265,246.843522 1250.53934,247.240634 1250.03974,247.230024 L1250.03974,247.230024 Z M1246.31694,247.142114 C1245.81734,247.129988 1245.42068,246.716204 1245.43128,246.214509 C1245.44339,245.715845 1245.85821,245.318733 1246.35782,245.330858 C1246.85742,245.341468 1247.25559,245.756769 1247.24196,246.256948 C1247.22985,246.758643 1246.81503,247.154239 1246.31694,247.142114 L1246.31694,247.142114 Z M1242.37461,247.051172 C1241.8735,247.040562 1241.47836,246.625262 1241.48895,246.125083 C1241.50107,245.624903 1241.91437,245.227791 1242.41549,245.239917 C1242.91358,245.252042 1243.31024,245.665827 1243.29964,246.166006 C1243.28753,246.666186 1242.8727,247.061782 1242.37461,247.051172 L1242.37461,247.051172 Z M1238.6503,246.964778 C1238.1507,246.954168 1237.75404,246.538867 1237.76615,246.038688 C1237.77826,245.538509 1238.19157,245.139881 1238.69269,245.153522 C1239.19229,245.165648 1239.58592,245.580948 1239.57532,246.079612 C1239.56473,246.579791 1239.1499,246.976903 1238.6503,246.964778 L1238.6503,246.964778 Z M1234.92598,246.878383 C1234.4279,246.867773 1234.03275,246.452473 1234.04487,245.952293 C1234.05546,245.452114 1234.46877,245.056517 1234.96989,245.067127 C1235.46949,245.079253 1235.86463,245.494553 1235.85404,245.994733 C1235.84192,246.493396 1235.4271,246.892024 1234.92598,246.878383 L1234.92598,246.878383 Z M1233.34088,248.174302 C1233.3106,248.94276 1232.69745,249.5551 1231.9435,249.602087 L1231.94199,249.668778 C1231.93896,249.743047 1231.87689,249.800643 1231.80422,249.800643 C1231.73004,249.800643 1231.67251,249.740015 1231.67251,249.66423 L1231.67402,249.596024 C1230.93067,249.50963 1230.35689,248.874553 1230.35386,248.116706 L1230.12677,248.110643 L1230.49011,247.551352 L1230.83378,248.1258 L1230.62183,248.122769 C1230.62788,248.735109 1231.08358,249.242867 1231.68008,249.32623 L1231.73004,246.678311 L1231.38183,246.673764 C1231.30916,246.672248 1231.25012,246.611621 1231.25314,246.537352 C1231.25466,246.464598 1231.31522,246.40397 1231.3894,246.405486 L1231.73458,246.413065 L1231.74215,245.903791 C1231.59832,245.846195 1231.49689,245.702204 1231.4984,245.535477 C1231.50295,245.32328 1231.67856,245.152006 1231.89203,245.156553 C1232.10701,245.1611 1232.27506,245.338437 1232.27203,245.55215 C1232.27052,245.717361 1232.16151,245.85832 1232.01315,245.909854 L1232.00406,246.417612 L1232.34773,246.42519 C1232.42343,246.42519 1232.48096,246.485818 1232.47944,246.558571 C1232.47641,246.634356 1232.41737,246.693468 1232.34319,246.690437 L1231.99801,246.684374 L1231.94805,249.332293 C1232.55665,249.283791 1233.04263,248.788159 1233.07594,248.169755 L1232.83673,248.163692 L1233.2016,247.604401 L1233.54526,248.178849 L1233.34088,248.174302 Z M1265.60162,244.415378 C1265.51382,244.425988 1265.43055,244.410831 1265.35636,244.409316 C1264.20576,244.382033 1263.9605,244.37597 1262.8099,244.350204 C1262.08018,244.335047 1261.59571,244.322921 1261.12639,244.312311 C1261.12336,244.312311 1261.12336,244.310796 1261.12185,244.310796 C1259.96973,244.283513 1259.72599,244.27745 1258.57387,244.251683 C1255.7988,244.191056 1253.02373,244.119818 1250.25018,244.05919 C1246.84833,243.984921 1243.448,243.900042 1240.04616,243.824257 C1237.01978,243.75302 1233.99188,243.690876 1230.96549,243.609029 C1229.07003,243.560526 1227.17911,243.51354 1225.28516,243.480195 C1224.79766,243.4711 1223.33519,243.433208 1222.5979,243.416535 C1223.8469,245.132302 1224.63416,246.297872 1225.22308,247.278526 C1225.93313,248.451674 1226.64771,249.61876 1227.35927,250.787361 C1227.5152,251.043513 1227.65297,251.349683 1227.84222,251.5831 C1227.91943,251.678589 1227.99664,251.792266 1228.0572,251.939289 L1228.26764,252.281836 C1228.54015,252.657728 1229.11242,253.221567 1230.12979,253.245818 C1231.65434,253.280679 1232.24932,252.043872 1232.24932,252.043872 C1232.64598,251.223881 1233.34845,251.699809 1233.80263,252.48797 C1233.80263,252.48797 1234.29164,253.341307 1235.64814,253.373136 C1237.1742,253.409513 1237.7707,252.17119 1237.7707,252.17119 C1238.16584,251.351199 1238.79867,251.366356 1239.15596,252.20302 C1239.15596,252.20302 1239.69492,253.467109 1241.22099,253.50197 C1242.74705,253.536831 1243.34657,252.298509 1243.34657,252.298509 C1243.7402,251.481549 1244.37303,251.49519 1244.73032,252.330338 C1244.73032,252.330338 1245.26929,253.595943 1246.79535,253.630804 C1248.32141,253.667181 1248.9179,252.427343 1248.9179,252.427343 C1249.31456,251.610383 1249.94588,251.62554 1250.30317,252.460688 C1250.30317,252.460688 1250.84213,253.724778 1252.36971,253.759639 C1253.89577,253.796015 1254.49075,252.557692 1254.49075,252.557692 C1254.88892,251.739217 1255.52024,251.752858 1255.87753,252.589522 C1255.87753,252.589522 1256.41649,253.853612 1257.94256,253.888473 C1258.36797,253.899083 1258.72981,253.733872 1259.04925,253.464078 L1259.04774,253.521674 C1259.59882,253.168517 1259.83499,252.681979 1259.83499,252.681979 C1260.23165,251.861988 1260.86599,251.877145 1261.22328,252.713809 C1261.22328,252.713809 1261.76074,253.976383 1263.2868,254.01276 C1265.85143,254.071872 1267.08075,248.469863 1267.68936,246.264526 C1267.96036,245.28084 1268.05119,244.806428 1267.94068,244.468428 L1265.60162,244.415378 Z" id="Fill-79" fill="#384240"></path>
                    <path d="M9.78404845,96.6132834 L26.4178089,96.9967543 C26.8992448,97.0088798 27.0884884,96.6814897 26.8371729,96.2692206 L25.8409942,93.5652206 C25.5896787,93.1544673 24.9916687,92.8073731 24.5102328,92.7967632 L12.392583,92.5163596 C11.9096332,92.5057498 11.3252488,92.8407184 11.0905867,93.2605659 L9.33591947,95.8281534 C9.09974339,96.2495166 9.30109864,96.6026735 9.78404845,96.6132834" id="Fill-81" fill="#384240"></path>
                    <path d="M16.4626842,92.2198897 L17.6375088,89.7871991 C17.8237246,89.3431004 17.2332844,89.4416206 16.7518485,89.4310108 L16.409696,89.4219166 C15.9297741,89.4113067 15.6951119,89.2748942 15.4604498,89.6947417 L14.1629953,92.1653247 L16.4626842,92.2198897 Z" id="Fill-83" fill="#384240"></path>
                    <path id="Fill-85" fill="#384240"></path>
                    <path d="M22.5298358,99.6111767 C22.1801136,99.6035982 21.9030608,99.3125848 21.9121445,98.9624592 C21.9197143,98.6108179 22.2088786,98.3334457 22.5601148,98.3425399 C22.9098371,98.3501184 23.1853759,98.6411318 23.1778061,98.9912574 C23.1702364,99.341383 22.8795581,99.6202709 22.5298358,99.6111767 L22.5298358,99.6111767 Z M19.9228152,99.5505489 C19.5730929,99.5429704 19.2960402,99.251957 19.30361,98.9018314 C19.3111797,98.5517058 19.6033719,98.2743336 19.9530942,98.2819121 C20.3028165,98.2894906 20.5798692,98.580504 20.5707855,98.9306296 C20.5632157,99.2807552 20.2740514,99.559643 19.9228152,99.5505489 L19.9228152,99.5505489 Z M17.3173085,99.4899211 C16.9660723,99.4823426 16.6890196,99.1928448 16.6965894,98.8412036 C16.7041591,98.491078 16.9948374,98.2137058 17.3445596,98.2212843 C17.6942819,98.2288628 17.9743625,98.5198762 17.9652788,98.8700018 C17.9561951,99.221643 17.6655169,99.4990152 17.3173085,99.4899211 L17.3173085,99.4899211 Z M14.5558651,99.4262619 C14.2046289,99.4186834 13.9290901,99.12767 13.9351459,98.7775444 C13.9442296,98.4274188 14.2349079,98.1500466 14.5846301,98.1576251 C14.9343524,98.1667193 15.2114051,98.456217 15.2038354,98.8063426 C15.1947517,99.1564682 14.9055874,99.4338404 14.5558651,99.4262619 L14.5558651,99.4262619 Z M11.9473305,99.3671498 C11.5976083,99.3580556 11.3205555,99.0670422 11.3281253,98.7169166 C11.337209,98.366791 11.6263733,98.0879031 11.9776095,98.0969973 C12.3273318,98.1060915 12.6028706,98.3971049 12.5953008,98.7457148 C12.5877311,99.0973561 12.2985668,99.3747283 11.9473305,99.3671498 L11.9473305,99.3671498 Z M9.34030993,99.306522 C8.9921016,99.2974278 8.71504888,99.0064143 8.72261863,98.6562888 C8.73018838,98.3061632 9.01935268,98.028791 9.37058891,98.0363695 C9.72031119,98.0454637 9.9973639,98.3364771 9.98979416,98.6866027 C9.98071046,99.0352126 9.6900322,99.3141004 9.34030993,99.306522 L9.34030993,99.306522 Z M8.23058512,100.212908 C8.20787588,100.750979 7.77942824,101.179921 7.25105995,101.213266 L7.249546,101.260253 C7.24803206,101.311787 7.20564148,101.35271 7.15265325,101.351195 C7.10117898,101.351195 7.0618163,101.308755 7.06030235,101.257222 L7.06333025,101.208719 C6.54101775,101.148091 6.1398212,100.703993 6.13830725,100.1735 L5.97934258,100.168952 L6.23368606,99.7779031 L6.47440399,100.179562 L6.32603696,100.178047 C6.33057881,100.605473 6.64850815,100.961661 7.06635815,101.019257 L7.10117898,99.1655623 L6.85743315,99.1625309 C6.80747282,99.1610152 6.76508224,99.1185758 6.76659619,99.0670422 C6.76811014,99.0155085 6.81201467,98.9730691 6.861975,98.9745848 L7.10572083,98.9806475 L7.11026267,98.6229435 C7.00882807,98.5820197 6.93767246,98.4819839 6.93918641,98.3652753 C6.94221431,98.2167372 7.06635815,98.0969973 7.21472517,98.1000287 C7.3661201,98.1030601 7.48420814,98.2273471 7.48118024,98.3758852 C7.47966629,98.4925937 7.40396883,98.5911139 7.29950633,98.6274906 L7.29345053,98.9821632 L7.53416846,98.988226 C7.58715669,98.988226 7.62803332,99.0306655 7.62651937,99.0821991 C7.62500542,99.1337327 7.58412879,99.1761722 7.53114057,99.1746565 L7.29042263,99.1701094 L7.25408785,101.023804 C7.68102154,100.990459 8.02166012,100.643365 8.04436936,100.209876 L7.87783495,100.205329 L8.13217842,99.8142798 L8.37289635,100.215939 L8.23058512,100.212908 Z M30.8217359,97.5801453 C30.759664,97.5877238 30.7021339,97.5771139 30.6506596,97.5755982 C29.8437247,97.5574099 29.6726484,97.5528628 28.8657135,97.5346744 C28.3555126,97.5240646 28.0163879,97.5164861 27.6878609,97.5089076 C27.686347,97.5073919 27.686347,97.5073919 27.684833,97.5073919 C26.8778981,97.4892036 26.7068218,97.4846565 25.8998869,97.4664682 C23.95749,97.422513 22.0135791,97.3740108 20.0711822,97.3300556 C17.6897401,97.278522 15.3082979,97.2194099 12.9253418,97.1663605 C10.8058128,97.1163426 8.68628385,97.0739031 6.56675489,97.0163067 C5.23902139,96.9829614 3.9143158,96.9496161 2.58809625,96.925365 C2.24745767,96.9193022 1.22251402,96.8935354 0.706257327,96.8814099 C1.58132,98.0833561 2.13239752,98.8988 2.54419172,99.5854099 C3.04228103,100.406917 3.54188428,101.225392 4.04148753,102.042352 C4.15049188,102.222719 4.24738463,102.436432 4.37909822,102.600127 C4.43360039,102.666818 4.48658862,102.745634 4.52897919,102.848701 L4.67734622,103.089697 C4.86810383,103.353428 5.26930038,103.747509 5.98085653,103.764181 C7.04819075,103.788432 7.4645268,102.92297 7.4645268,102.92297 C7.74309346,102.348522 8.23512697,102.681975 8.55305631,103.233688 C8.55305631,103.233688 8.89672279,103.832387 9.84596898,103.853607 C10.9148171,103.879374 11.3311532,103.012396 11.3311532,103.012396 C11.6097199,102.437948 12.051793,102.448558 12.3015947,103.035132 C12.3015947,103.035132 12.678568,103.918782 13.7489302,103.944549 C14.8162644,103.9688 15.2371423,103.101822 15.2371423,103.101822 C15.512681,102.52889 15.9562682,102.5395 16.2060698,103.124558 C16.2060698,103.124558 16.5830432,104.009724 17.6518913,104.033975 C18.7207395,104.059742 19.1370756,103.191248 19.1370756,103.191248 C19.4156422,102.618316 19.8577154,102.628926 20.107517,103.2155 C20.107517,103.2155 20.4860043,104.09915 21.5563665,104.124917 C22.6237007,104.149168 23.0415507,103.28219 23.0415507,103.28219 C23.3201173,102.709257 23.7621905,102.719867 24.0119921,103.304926 C24.0119921,103.304926 24.3889655,104.190091 25.4578137,104.214343 C25.7560617,104.221921 26.0088912,104.105213 26.2329557,103.917266 L26.2329557,103.95819 C26.6174988,103.709616 26.7840332,103.368585 26.7840332,103.368585 C27.0610859,102.795652 27.5046731,102.806262 27.7559887,103.39132 C27.7559887,103.39132 28.132962,104.276486 29.2002962,104.300737 C30.9958401,104.343177 31.8572772,100.420558 32.2842109,98.8760646 C32.4734545,98.1864233 32.5370404,97.8544861 32.459829,97.6180377 L30.8217359,97.5801453 Z" id="Fill-87" fill="#384240"></path>
                    <path d="M810.594774,171.654588 C736.915405,168.623198 737.925209,138.309297 648.098058,125.172768" id="Stroke-89" stroke="#384240" stroke-width="0.46" stroke-dasharray="1.226"></path>
                    <path d="M845.920357,171.654588 C887.712926,177.761324 978.531714,218.078813 1017.50077,234.302813 C1119.44103,276.742274 1255.33463,249.341539 1272.85405,248.45031" id="Stroke-91" stroke="#384240" stroke-width="0.46" stroke-dasharray="1.226"></path>
                    <path d="M67.7504403,230.261515 C152.531599,244.407497 194.922178,240.366654 287.777227,216.115533 C353.261588,199.01243 424.68063,139.201587 442.200051,138.308842" id="Stroke-93" stroke="#384240" stroke-width="0.46" stroke-dasharray="1.226"></path>
                    <path d="M51.6015978,72.6292278 C128.308865,76.6715865 128.505678,91.7618466 237.313211,55.4518556 C325.122268,26.1474072 338.242152,3.91822332 388.708136,0.886833184" id="Stroke-95" stroke="#384240" stroke-width="0.46" stroke-dasharray="1.226"></path>
                </g>
            </g>
        </g>
    </g>
</svg>