<?xml version="1.0" encoding="UTF-8" standalone="no"?>
<svg width="139px" height="136px" viewBox="0 0 139 136" version="1.1" xmlns="http://www.w3.org/2000/svg" xmlns:xlink="http://www.w3.org/1999/xlink" xmlns:sketch="http://www.bohemiancoding.com/sketch/ns">
    <!-- Generator: Sketch 3.3 (11970) - http://www.bohemiancoding.com/sketch -->
    <title>Imported Layers Copy</title>
    <desc>Created with Sketch.</desc>
    <defs></defs>
    <g id="注册与登录" stroke="none" stroke-width="1" fill="none" fill-rule="evenodd" sketch:type="MSPage">
        <g id="登录---再次" sketch:type="MSArtboardGroup" transform="translate(-570.000000, -52.000000)">
            <g id="Imported-Layers-Copy" sketch:type="MSLayerGroup" transform="translate(570.000000, 52.000000)">
                <path d="M88.3157162,56.3802353 C87.7489155,57.9891765 89.1022872,60.936 89.1022872,60.936 C89.1022872,60.936 88.6355101,63.0870588 75.1905473,65.9915294 C75.1905473,65.9915294 71.565277,63.6305882 70.5232466,54.7303529 C69.658723,47.3454118 69.2473581,47.2847059 69.1614223,36.7524706 C69.1684662,36.6503529 69.172223,36.5411765 69.1703446,36.4230588 C69.0872264,31.1985882 68.911598,30.1872941 69.8230811,29.3661176 C69.8381081,29.3524706 69.8512568,29.3374118 69.8629966,29.3209412 C70.7500608,28.5270588 71.3084088,27.3731765 71.3084088,26.088 C71.3084088,23.6936471 69.3718007,21.7529412 66.982973,21.7529412 C64.5941453,21.7529412 62.6575372,23.6936471 62.6575372,26.088 C62.6575372,27.3971765 63.2379561,28.5703529 64.1536655,29.3651765 L64.1546047,29.3661176 C65.0139628,30.1397647 64.9073649,31.0842353 64.8223682,35.5637647 L64.8143851,35.5637647 C64.7444155,44.6517647 64.3429122,47.0418824 63.4426993,54.7303529 C62.4006689,63.6305882 58.7753986,65.9915294 58.7753986,65.9915294 C45.3304358,63.0870588 44.8636588,60.936 44.8636588,60.936 C44.8636588,60.936 46.2175,57.9891765 45.6506993,56.3802353 C45.1543378,54.9722353 35.0162601,47.4197647 35.0162601,47.4197647 C35.0162601,47.4197647 35.4379561,54.9035294 40.6805101,63.5934118 C46.3574392,73.0023529 66.9820338,80.7044706 66.9820338,80.7044706 L66.982973,80.704 L66.9843818,80.7044706 C66.9843818,80.7044706 87.6089764,73.0023529 93.2854358,63.5934118 C98.5284595,54.9035294 98.9496858,47.4197647 98.9496858,47.4197647 C98.9496858,47.4197647 88.8120777,54.9722353 88.3157162,56.3802353 L88.3157162,56.3802353 Z M66.982973,27.8964706 C65.9860236,27.8964706 65.1783209,27.0865882 65.1783209,26.0875294 C65.1783209,25.0889412 65.9860236,24.2790588 66.982973,24.2790588 C67.9799223,24.2790588 68.7880946,25.0889412 68.7880946,26.0875294 C68.7880946,27.0865882 67.9799223,27.8964706 66.982973,27.8964706 L66.982973,27.8964706 Z" id="Fill-1" fill="#EB8B2D" sketch:type="MSShapeGroup"></path>
                <path d="M100.221348,24.2103529 C94.1123919,16.1712941 75.0501385,0.792 67.1445135,0.400941176 C67.1440439,0.398588235 67.1421655,0.391529412 67.1421655,0.391529412 C67.0933277,0.391529412 67.0416723,0.395294118 66.9914257,0.396235294 L66.9857905,0.396235294 L66.9801554,0.396235294 C66.9303784,0.395294118 66.8782534,0.391529412 66.8294155,0.391529412 L66.8270676,0.400941176 C58.9214426,0.792 39.8591892,16.1712941 33.7502331,24.2103529 C30.8626959,28.0103529 35.0162601,46.1567059 35.0162601,46.1567059 C35.0162601,46.1567059 33.9427669,32.0687059 36.4776385,27.3472941 C39.1468142,22.3764706 57.9709831,9.41176471 66.7979527,8.68282353 C66.8622872,8.68 66.9223953,8.66917647 66.9801554,8.65411765 C66.9820338,8.65458824 66.9839122,8.65458824 66.9857905,8.65505882 C66.9857905,8.65505882 66.9895473,8.65458824 66.9914257,8.65411765 C67.0491858,8.66917647 67.1092939,8.68 67.1736284,8.68282353 C76.0010676,9.41176471 94.8252365,22.3764706 97.4939426,27.3472941 C100.028814,32.0687059 98.9553209,46.1567059 98.9553209,46.1567059 C98.9553209,46.1567059 103.108885,28.0103529 100.221348,24.2103529" id="Fill-2" fill="#264779" sketch:type="MSShapeGroup"></path>
                <path d="M74.5739696,24.2164706 C74.3866014,23.1642353 73.9564527,22.0814118 73.2675574,21.12 C72.5800709,20.1614118 71.6436993,19.3176471 70.5302905,18.7463529 C69.4239257,18.1614118 68.1452196,17.8630588 66.876375,17.8696471 C66.2410135,17.8781176 65.6061216,17.9604706 64.9914223,18.1157647 C64.3757838,18.2682353 63.7878514,18.5115294 63.2370169,18.8051765 C62.6843041,19.0978824 62.1785507,19.4630588 61.7263311,19.872 C61.2731723,20.2804706 60.8707297,20.7336471 60.5387264,21.2225882 C59.8667365,22.1948235 59.4492669,23.2818824 59.2802128,24.3378824 C59.2623682,24.4701176 59.2449932,24.6018824 59.2276182,24.7322353 C59.2168176,24.8635294 59.2060169,24.9938824 59.1952162,25.1232941 C59.1909899,25.2564706 59.1862939,25.3891765 59.1820676,25.5204706 C59.1848851,25.6381176 59.1881723,25.7552941 59.1909899,25.8715294 L59.1909899,25.8823529 C59.1909899,25.8823529 59.1909899,25.9152941 59.1919291,25.9072941 L59.1938074,25.9308235 L59.1970946,25.9769412 L59.2046081,26.0696471 C59.2097736,26.1312941 59.2144696,26.1924706 59.2196351,26.2531765 C59.2266791,26.3750588 59.2449932,26.4950588 59.2623682,26.6136471 C59.2914831,26.8517647 59.3417297,27.0814118 59.3919764,27.3049412 C59.6131554,28.1962353 59.9662905,28.9628235 60.3701419,29.5712941 C60.7711757,30.1835294 61.2107162,30.6423529 61.5934358,30.9844706 C61.9723986,31.3317647 62.3189595,31.5435294 62.5453041,31.6917647 C62.7805709,31.8244706 62.9059527,31.8955294 62.9059527,31.8955294 C62.9059527,31.8955294 62.7988851,31.7985882 62.5988378,31.6169412 C62.5021014,31.5228235 62.3851723,31.4070588 62.2527466,31.2682353 C62.1250169,31.1218824 61.9747466,30.9609412 61.8235372,30.7656471 C61.5178311,30.3797647 61.1914628,29.8785882 60.9078277,29.2701176 C60.8693209,29.1957647 60.8406757,29.1152941 60.8068649,29.0357647 C60.7739932,28.9562353 60.740652,28.8752941 60.7068412,28.7934118 C60.6777264,28.7096471 60.6486115,28.6249412 60.6185574,28.5388235 C60.604,28.496 60.588973,28.4527059 60.5739459,28.4094118 C60.5617365,28.3651765 60.5490574,28.3204706 60.536848,28.2752941 C60.4264932,27.9204706 60.3555845,27.5355294 60.3011115,27.1364706 C60.2832669,26.9350588 60.2579088,26.7317647 60.2560304,26.5223529 C60.2513345,26.4183529 60.2461689,26.3134118 60.2518041,26.2070588 C60.2546216,26.1049412 60.2574392,26.0023529 60.2602568,25.8988235 C60.2691791,25.7830588 60.2781014,25.6658824 60.2865541,25.5482353 C60.3001723,25.4442353 60.3133209,25.3397647 60.3269392,25.2343529 C60.345723,25.1256471 60.3649764,25.0164706 60.3842297,24.9063529 C60.4086486,24.7971765 60.4335372,24.6875294 60.4584257,24.5769412 C60.675848,23.6988235 61.0900304,22.8282353 61.683598,22.0607059 C62.2781047,21.2941176 63.0590405,20.6376471 63.957375,20.1835294 C64.8552399,19.7284706 65.8676858,19.4790588 66.8885845,19.4757647 L66.9355439,19.4743529 L66.9425878,19.4748235 L66.9693547,19.4752941 L67.0768919,19.4776471 L67.2914966,19.4818824 C67.4121824,19.4931765 67.5267635,19.4969412 67.6521453,19.5115294 C67.7779966,19.5289412 67.9052568,19.5383529 68.0296993,19.5637647 L68.2175372,19.5962353 L68.403027,19.6376471 C68.8970405,19.7515294 69.3793142,19.9143529 69.8305946,20.1378824 L69.9991791,20.2216471 L70.1640068,20.3129412 C70.2748311,20.3712941 70.3795507,20.4404706 70.4861486,20.5058824 C70.5932162,20.5703529 70.6932399,20.6447059 70.7974899,20.7129412 C70.8965743,20.7887059 70.9984764,20.8602353 71.0942736,20.9388235 C71.4802804,21.2503529 71.8263716,21.6028235 72.1330169,21.9783529 C72.7392635,22.7364706 73.1628378,23.6023529 73.3952872,24.4757647 C73.5140946,24.912 73.5821858,25.3510588 73.6131791,25.7802353 L73.6216318,25.8809412 L73.6225709,25.8908235 C73.6230405,25.8870588 73.6230405,25.9143529 73.6235101,25.8842353 L73.6244493,25.9275294 C73.6258581,25.9854118 73.6272669,26.0428235 73.6282061,26.0997647 C73.6296149,26.2112941 73.6371284,26.3341176 73.6300845,26.4287059 C73.6267973,26.5294118 73.6235101,26.6287059 73.6197534,26.7275294 C73.6103615,26.8296471 73.6014392,26.9308235 73.5925169,27.0305882 C73.5859426,27.1317647 73.5713851,27.2305882 73.5554189,27.328 C73.5389831,27.4254118 73.5281824,27.5237647 73.5079899,27.6183529 C73.4666655,27.808 73.4300372,27.9948235 73.376973,28.1731765 C73.2844628,28.5345882 73.1520372,28.864 73.0228986,29.1741176 C72.7486554,29.7863529 72.4302703,30.2927059 72.1311385,30.6837647 C71.9827466,30.8804706 71.8357635,31.0456471 71.7099122,31.1924706 C71.5798345,31.3355294 71.4629054,31.4517647 71.3689865,31.5482353 C71.1722264,31.7327059 71.0670372,31.8305882 71.0670372,31.8305882 C71.0670372,31.8305882 71.1919493,31.7576471 71.4258074,31.6207059 C71.6493345,31.4687059 71.9916689,31.2536471 72.3659358,30.8997647 C72.7434899,30.552 73.1759865,30.0861176 73.5685676,29.4682353 C73.9550439,28.8498824 74.3100574,28.0823529 74.5086959,27.1854118 C74.5326453,27.0729412 74.558473,26.9604706 74.5796047,26.8437647 C74.5965101,26.7237647 74.6134155,26.6023529 74.6307905,26.48 C74.6509831,26.352 74.6542703,26.2484706 74.6655405,26.1322353 C74.6702365,26.0752941 74.675402,26.0178824 74.680098,25.9604706 L74.6838547,25.9176471 L74.6852635,25.8545882 L74.6876115,25.7614118 C74.7035777,25.2630588 74.6664797,24.7435294 74.5739696,24.2164706" id="Fill-3" fill="#EB8B2D" sketch:type="MSShapeGroup"></path>
                <path d="M29.3078682,124.442824 L21.5022669,124.442824 C21.2036047,124.442824 20.9608243,124.199529 20.9608243,123.899765 L20.9608243,121.240941 C20.9608243,120.941176 21.2036047,120.698353 21.5022669,120.698353 L30.1583041,120.698353 C30.4574358,120.698353 30.6997466,120.941176 30.6997466,121.240941 L30.6997466,123.047529 C30.6997466,123.818353 30.0765946,124.442824 29.3078682,124.442824" id="Fill-5" fill="#264779" sketch:type="MSShapeGroup"></path>
                <path d="M0.761682432,111.992 L14.6565169,111.992 C14.9556486,111.992 15.1979595,112.234824 15.1979595,112.534588 L15.1979595,115.090353 C15.1979595,115.860706 14.5748074,116.485176 13.8060811,116.485176 L5.07772635,116.485176 L5.07772635,120.604706 L14.0958209,120.604706 C14.3949527,120.604706 14.6372635,120.847529 14.6372635,121.147294 L14.6372635,123.703059 C14.6372635,124.473412 14.0141115,125.097882 13.2453851,125.097882 L5.07772635,125.097882 L5.07772635,129.591529 L15.2167432,129.591529 C15.515875,129.591529 15.7581858,129.834353 15.7581858,130.134118 L15.7581858,132.689882 C15.7581858,133.460706 15.1350338,134.085176 14.3663074,134.085176 L0.761682432,134.085176 C0.462550676,134.085176 0.220239865,133.841882 0.220239865,133.542118 L0.220239865,112.534588 C0.220239865,112.234824 0.462550676,111.992 0.761682432,111.992" id="Fill-4" fill="#264779" sketch:type="MSShapeGroup"></path>
                <path d="M36.2203007,112.534588 C36.2203007,112.234824 36.4630811,111.992 36.7622128,111.992 L44.4100304,111.992 C45.5516149,111.992 46.6312128,112.096471 47.6483547,112.304 C48.6654966,112.512 49.5530304,112.871059 50.3109561,113.380706 C51.0684122,113.890824 51.6704324,114.576941 52.1170169,115.44 C52.5631318,116.303529 52.7866588,117.390588 52.7866588,118.700706 C52.7866588,119.991059 52.5786284,121.072471 52.1639764,121.946353 C51.7483851,122.820235 51.1773581,123.517176 50.4508953,124.037176 C49.7239628,124.557176 48.8631959,124.926588 47.8667162,125.144941 C46.8702365,125.363294 45.7901689,125.472471 44.6279223,125.472471 L41.0782568,125.472471 L41.0782568,132.689882 C41.0782568,133.460706 40.4551047,134.085176 39.6863784,134.085176 L36.7622128,134.085176 C36.4630811,134.085176 36.2203007,133.841882 36.2203007,133.542118 L36.2203007,112.534588 L36.2203007,112.534588 Z M41.0782568,121.353412 L44.3165811,121.353412 C44.7528345,121.353412 45.1731216,121.312 45.5779122,121.228706 C45.9827027,121.145882 46.3456993,121.005176 46.6673716,120.807529 C46.9895135,120.609882 47.2487297,120.339294 47.4459595,119.995765 C47.6431892,119.652706 47.7418041,119.221176 47.7418041,118.700706 C47.7418041,118.139294 47.6121959,117.687059 47.3529797,117.343529 C47.0928243,117.000471 46.7612905,116.735059 46.3565,116.547765 C45.9512399,116.360471 45.4999595,116.241412 45.0017196,116.189176 C44.5034797,116.137412 44.025902,116.111059 43.5694561,116.111059 L41.0782568,116.111059 L41.0782568,121.353412 L41.0782568,121.353412 Z" id="Fill-6" fill="#264779" sketch:type="MSShapeGroup"></path>
                <path d="M81.7874122,112.534588 C81.7874122,112.234824 82.0301926,111.992 82.3288547,111.992 L90.3194764,111.992 C91.4408682,111.992 92.5040304,112.101176 93.5113108,112.319529 C94.5181216,112.538353 95.4000203,112.902118 96.1584155,113.411765 C96.9158716,113.921882 97.5178919,114.608 97.9644764,115.471059 C98.4105912,116.335059 98.6336486,117.411294 98.6336486,118.700706 C98.6336486,120.261176 98.2288581,121.587294 97.419277,122.679529 C96.6096959,123.771765 95.4263176,124.463529 93.8696115,124.754824 L98.9802095,133.262588 C99.1976318,133.624 98.9374764,134.085176 98.51625,134.085176 L93.9794966,134.085176 C93.7780405,134.085176 93.5930203,133.972706 93.4995709,133.793882 L89.0431182,125.254118 L86.6453682,125.254118 L86.6453682,132.689882 C86.6453682,133.460706 86.0222162,134.085176 85.2530203,134.085176 L82.3288547,134.085176 C82.0301926,134.085176 81.7874122,133.841882 81.7874122,133.542118 L81.7874122,112.534588 L81.7874122,112.534588 Z M86.6453682,121.135059 L89.5098953,121.135059 C89.9461486,121.135059 90.4077601,121.119529 90.8956689,121.088 C91.3831081,121.056941 91.824527,120.963294 92.2189865,120.807529 C92.6129764,120.651294 92.9402838,120.407059 93.1999696,120.073882 C93.4591858,119.741647 93.5892635,119.273412 93.5892635,118.669647 C93.5892635,118.108235 93.475152,117.661176 93.2469291,117.328 C93.0177669,116.995294 92.7275574,116.740706 92.3748919,116.563765 C92.0217568,116.387294 91.6169662,116.266824 91.1605203,116.204706 C90.7036047,116.142118 90.2574899,116.111059 89.8212365,116.111059 L86.6453682,116.111059 L86.6453682,121.135059 L86.6453682,121.135059 Z" id="Fill-7" fill="#264779" sketch:type="MSShapeGroup"></path>
                <path d="M108.551486,116.298353 L102.802709,116.298353 C102.503578,116.298353 102.261267,116.055529 102.261267,115.755765 L102.261267,112.534588 C102.261267,112.234824 102.503578,111.992 102.802709,111.992 L119.15728,111.992 C119.456412,111.992 119.699193,112.234824 119.699193,112.534588 L119.699193,114.903529 C119.699193,115.673882 119.075571,116.298353 118.306845,116.298353 L113.408973,116.298353 L113.408973,132.689882 C113.408973,133.460706 112.785821,134.085176 112.017095,134.085176 L109.092929,134.085176 C108.793797,134.085176 108.551486,133.841882 108.551486,133.542118 L108.551486,116.298353" id="Fill-8" fill="#264779" sketch:type="MSShapeGroup"></path>
                <path d="M135.784686,116.960941 C135.585108,117.179765 135.24653,117.198118 135.026291,117 C134.686304,116.693647 134.27353,116.454588 133.788909,116.282824 C133.114101,116.043765 132.475922,115.923765 131.873902,115.923765 C131.520767,115.923765 131.15777,115.965647 130.783973,116.048471 C130.410645,116.131765 130.05751,116.262118 129.725507,116.438588 C129.393034,116.615529 129.123017,116.849882 128.915926,117.140706 C128.707895,117.432471 128.604584,117.785882 128.604584,118.201882 C128.604584,118.867765 128.85347,119.377412 129.351709,119.730824 C129.849949,120.084706 130.477797,120.385882 131.235723,120.635765 C131.993179,120.885176 132.808395,121.135059 133.679963,121.384941 C134.552,121.634353 135.366277,121.988235 136.124672,122.445647 C136.882128,122.903529 137.509976,123.517176 138.008216,124.286588 C138.506456,125.056471 138.755811,126.086588 138.755811,127.376 C138.755811,128.603765 138.527118,129.674824 138.070672,130.590118 C137.613757,131.505882 136.99624,132.264941 136.218122,132.867765 C135.439534,133.471529 134.536503,133.918588 133.50903,134.209882 C132.481088,134.500706 131.396324,134.647059 130.25474,134.647059 C128.822476,134.647059 127.493524,134.428235 126.268821,133.991529 C125.20425,133.611765 124.202605,133.027765 123.263885,132.239529 C123.029088,132.042824 123.008895,131.687529 123.214578,131.460706 L125.884693,128.52 C126.098828,128.284235 126.465111,128.287059 126.683943,128.518588 C127.109395,128.968471 127.609044,129.331294 128.184297,129.607059 C128.941753,129.971294 129.725507,130.152941 130.535088,130.152941 C130.929078,130.152941 131.329172,130.106353 131.733963,130.012706 C132.138753,129.919059 132.50175,129.778824 132.823892,129.591529 C133.145564,129.404235 133.40478,129.165176 133.60248,128.873882 C133.79924,128.582588 133.897855,128.239529 133.897855,127.844235 C133.897855,127.178353 133.643804,126.653647 133.135233,126.268235 C132.626193,125.883294 131.988014,125.555765 131.220226,125.285176 C130.45197,125.015059 129.621257,124.744471 128.729027,124.473882 C127.836328,124.203765 127.005615,123.839529 126.237828,123.381647 C125.469571,122.924235 124.831392,122.320941 124.322821,121.571765 C123.81378,120.823059 123.55973,119.835294 123.55973,118.607529 C123.55973,117.421647 123.793588,116.381647 124.260365,115.487059 C124.727611,114.592941 125.350294,113.843765 126.128882,113.24 C126.90747,112.637176 127.805334,112.184471 128.822476,111.882824 C129.839149,111.581647 130.887753,111.430118 131.967351,111.430118 C133.213186,111.430118 134.416757,111.607059 135.579473,111.960941 C136.557169,112.258353 137.454564,112.725176 138.27072,113.361412 C138.521953,113.556706 138.555764,113.924235 138.341628,114.159529 L135.784686,116.960941" id="Fill-9" fill="#264779" sketch:type="MSShapeGroup"></path>
                <path d="M73.8803784,128.203294 C73.7038108,128.703529 74.1250372,129.620235 74.1250372,129.620235 C74.1250372,129.620235 73.9799324,130.289882 69.7967838,131.193412 C69.7967838,131.193412 68.6692872,130.458824 68.3447973,127.689882 C68.0757196,125.392 67.9479899,125.373176 67.921223,122.096471 C67.9235709,122.064941 67.9245101,122.030588 67.9240405,121.993882 C67.8982128,120.368471 67.8432703,120.054118 68.1269054,119.798588 C68.1316014,119.794353 68.1358277,119.789647 68.1395845,119.784471 C68.4152365,119.537412 68.5889865,119.178353 68.5889865,118.778824 C68.5889865,118.033882 67.9864966,117.430118 67.243598,117.430118 C66.5002297,117.430118 65.8977399,118.033882 65.8977399,118.778824 C65.8977399,119.185882 66.0780642,119.551059 66.3631081,119.798118 L66.3635777,119.798588 C66.630777,120.039529 66.5974358,120.333176 66.5711385,121.726588 L66.5687905,121.726588 C66.5467196,124.554353 66.422277,125.297882 66.1419291,127.689882 C65.8179088,130.458824 64.6899426,131.193412 64.6899426,131.193412 C60.5067939,130.289882 60.3616892,129.620235 60.3616892,129.620235 C60.3616892,129.620235 60.7829155,128.703529 60.606348,128.203294 C60.4518514,127.765176 57.2980541,125.415059 57.2980541,125.415059 C57.2980541,125.415059 57.4290709,127.743529 59.0604426,130.447059 C60.8265878,133.374588 67.2431284,135.770824 67.2431284,135.770824 L67.243598,135.770824 C67.243598,135.770824 73.6606081,133.374588 75.4267534,130.447059 C77.0576554,127.743529 77.1886723,125.415059 77.1886723,125.415059 C77.1886723,125.415059 74.034875,127.765176 73.8803784,128.203294 L73.8803784,128.203294 Z M67.243598,119.341176 C66.9331959,119.341176 66.6819628,119.089412 66.6819628,118.778824 C66.6819628,118.467765 66.9331959,118.216 67.243598,118.216 C67.5535304,118.216 67.8047635,118.467765 67.8047635,118.778824 C67.8047635,119.089412 67.5535304,119.341176 67.243598,119.341176 L67.243598,119.341176 Z" id="Fill-10" fill="#EB8B2D" sketch:type="MSShapeGroup"></path>
                <path d="M77.5845405,118.194353 C75.6836216,115.693176 69.7531115,110.908706 67.2938446,110.786824 L67.2929054,110.784 C67.2778784,110.784 67.2614426,110.785412 67.2459459,110.785412 L67.2426588,110.785412 C67.2266926,110.785412 67.2107264,110.784 67.1956993,110.784 L67.1947601,110.786824 C64.7354932,110.908706 58.8049831,115.693176 56.9040642,118.194353 C56.0057297,119.376471 57.2980541,125.022588 57.2980541,125.022588 C57.2980541,125.022588 56.9641723,120.639529 57.7526216,119.170353 C58.5828649,117.624 64.4396486,113.590588 67.1858378,113.363765 C67.2060304,113.362824 67.2243446,113.359529 67.2426588,113.354824 L67.2440676,113.354824 L67.2459459,113.354824 C67.2642601,113.359529 67.2825743,113.362824 67.3027669,113.363765 C70.0489561,113.590588 75.9052703,117.624 76.7359831,119.170353 C77.5244324,120.639529 77.1905507,125.022588 77.1905507,125.022588 C77.1905507,125.022588 78.482875,119.376471 77.5845405,118.194353" id="Fill-11" fill="#264779" sketch:type="MSShapeGroup"></path>
                <path d="M69.6051892,118.196706 C69.5469595,117.869176 69.413125,117.532235 69.1985203,117.232941 C68.9848547,116.934588 68.6932365,116.672471 68.3471453,116.494588 C68.0029324,116.312471 67.6051858,116.219765 67.2102568,116.221647 C67.0125574,116.224471 66.8148581,116.250353 66.6237331,116.298353 C66.4321385,116.345882 66.2494662,116.421647 66.0780642,116.512941 C65.9061926,116.603765 65.7488784,116.717647 65.608,116.844706 C65.4671216,116.971765 65.3417399,117.112941 65.2384291,117.264941 C65.0294595,117.567529 64.8993818,117.905882 64.8467872,118.234353 C64.8416216,118.275294 64.8359865,118.316235 64.8303514,118.356706 C64.8270642,118.397647 64.823777,118.438118 64.8204899,118.478588 C64.8190811,118.52 64.8176723,118.560941 64.8162635,118.601882 C64.8172027,118.638588 64.8181419,118.675294 64.8190811,118.711529 L64.8195507,118.722353 L64.8200203,118.729882 L64.8233074,118.773176 C64.8247162,118.792 64.8265946,118.811294 64.8280034,118.830118 C64.8303514,118.868235 64.8359865,118.905412 64.8416216,118.942118 C64.8505439,119.016 64.8660405,119.087529 64.8815372,119.157176 C64.9505676,119.434353 65.0604527,119.672941 65.1858345,119.862588 C65.3107466,120.052706 65.4473986,120.195765 65.5666757,120.302118 C65.6845439,120.409882 65.7920811,120.476235 65.8625203,120.521882 C65.935777,120.563294 65.9747534,120.585412 65.9747534,120.585412 C65.9747534,120.585412 65.9418818,120.555294 65.8794257,120.498824 C65.8493716,120.469647 65.8127432,120.433412 65.7718885,120.390118 C65.731973,120.344941 65.6850135,120.294588 65.6380541,120.233882 C65.5431959,120.113882 65.4417635,119.958118 65.3534797,119.768471 C65.3412703,119.745412 65.332348,119.720471 65.3220169,119.695529 C65.3116858,119.671059 65.3013547,119.645647 65.2905541,119.620235 C65.2816318,119.594353 65.2727095,119.568 65.2633176,119.541176 C65.2586216,119.528 65.2539257,119.514353 65.2492297,119.500706 C65.245473,119.487059 65.2417162,119.473412 65.2379595,119.459294 C65.2036791,119.348706 65.1816081,119.229176 65.1647027,119.104941 C65.1590676,119.042353 65.1510845,118.978824 65.1506149,118.913882 C65.1492061,118.881412 65.1473277,118.848941 65.1492061,118.815529 C65.1501453,118.784 65.1510845,118.752 65.1520236,118.72 C65.1543716,118.683765 65.1571892,118.647529 65.1600068,118.610824 C65.1642331,118.578353 65.1684595,118.545882 65.1726858,118.512941 C65.1783209,118.479059 65.1844257,118.445176 65.1905304,118.410824 C65.1980439,118.376941 65.2055574,118.343059 65.2135405,118.308706 C65.2811622,118.035294 65.4098311,117.764706 65.5948514,117.525647 C65.7798716,117.287059 66.022652,117.082824 66.3020608,116.941647 C66.5814696,116.8 66.8965676,116.722353 67.2140135,116.721412 L67.2285709,116.720941 L67.2393716,116.721412 L67.2727128,116.721882 L67.3393953,116.723294 C67.3769628,116.727059 67.412652,116.728 67.4516284,116.732706 C67.4906047,116.737882 67.5300507,116.741176 67.569027,116.748706 L67.6272568,116.759059 L67.6850169,116.771765 C67.8390439,116.807529 67.9888446,116.857882 68.1292534,116.927529 L68.181848,116.953412 L68.2330338,116.982118 C68.2677838,117 68.3001858,117.021647 68.3330574,117.041882 C68.3663986,117.062118 68.3978615,117.085176 68.4302635,117.106353 C68.4607872,117.129882 68.4927196,117.152 68.5223041,117.176471 C68.6425203,117.273412 68.7500574,117.383059 68.8453851,117.500235 C69.0341622,117.736 69.1661182,118.005176 69.2384358,118.277176 C69.2755338,118.412706 69.2966655,118.549647 69.3060574,118.682824 L69.3084054,118.707765 L69.308875,118.714353 L69.308875,118.717176 C69.308875,118.717176 69.3093446,118.724706 69.3093446,118.715294 L69.3098142,118.728941 C69.3102838,118.746824 69.3102838,118.764706 69.3107534,118.782118 C69.311223,118.816941 69.3135709,118.855059 69.311223,118.884706 C69.3102838,118.915765 69.3093446,118.946824 69.3084054,118.977412 C69.3051182,119.009412 69.3023007,119.040941 69.2994831,119.072 C69.2976047,119.103529 69.2929088,119.134118 69.2882128,119.164235 C69.2830473,119.194824 69.2797601,119.225412 69.2736554,119.254588 C69.2605068,119.313882 69.2492365,119.371765 69.2328007,119.427294 C69.2041554,119.539765 69.1628311,119.642353 69.1224459,119.738824 C69.0369797,119.929412 68.9383649,120.086588 68.8449155,120.208471 C68.7988953,120.269647 68.7533446,120.320941 68.7138986,120.366588 C68.6735135,120.411294 68.6368851,120.447529 68.6077703,120.477647 C68.546723,120.534588 68.5138514,120.565176 68.5138514,120.565176 C68.5138514,120.565176 68.5528277,120.542588 68.6256149,120.500235 C68.6951149,120.452706 68.8017128,120.385882 68.9181723,120.275765 C69.0355709,120.167529 69.169875,120.022588 69.2924392,119.830118 C69.4126554,119.638118 69.5230101,119.399059 69.584527,119.12 C69.5920405,119.085176 69.6000236,119.049882 69.606598,119.013647 C69.6122331,118.976471 69.6173986,118.938824 69.6225642,118.900706 C69.6291385,118.860706 69.6300777,118.828706 69.6338345,118.792471 C69.6352432,118.774588 69.636652,118.756706 69.6380608,118.738824 L69.639,118.725647 L69.6394696,118.705882 L69.6404088,118.677176 C69.6451047,118.521882 69.6338345,118.360471 69.6051892,118.196706" id="Fill-12" fill="#EB8B2D" sketch:type="MSShapeGroup"></path>
            </g>
        </g>
    </g>
</svg>